%TF.GenerationSoftware,KiCad,Pcbnew,(6.0.0)*%
%TF.CreationDate,2022-01-25T19:48:24+01:00*%
%TF.ProjectId,ESP32_Blind,45535033-325f-4426-9c69-6e642e6b6963,rev?*%
%TF.SameCoordinates,Original*%
%TF.FileFunction,Copper,L1,Top*%
%TF.FilePolarity,Positive*%
%FSLAX46Y46*%
G04 Gerber Fmt 4.6, Leading zero omitted, Abs format (unit mm)*
G04 Created by KiCad (PCBNEW (6.0.0)) date 2022-01-25 19:48:24*
%MOMM*%
%LPD*%
G01*
G04 APERTURE LIST*
G04 Aperture macros list*
%AMRoundRect*
0 Rectangle with rounded corners*
0 $1 Rounding radius*
0 $2 $3 $4 $5 $6 $7 $8 $9 X,Y pos of 4 corners*
0 Add a 4 corners polygon primitive as box body*
4,1,4,$2,$3,$4,$5,$6,$7,$8,$9,$2,$3,0*
0 Add four circle primitives for the rounded corners*
1,1,$1+$1,$2,$3*
1,1,$1+$1,$4,$5*
1,1,$1+$1,$6,$7*
1,1,$1+$1,$8,$9*
0 Add four rect primitives between the rounded corners*
20,1,$1+$1,$2,$3,$4,$5,0*
20,1,$1+$1,$4,$5,$6,$7,0*
20,1,$1+$1,$6,$7,$8,$9,0*
20,1,$1+$1,$8,$9,$2,$3,0*%
G04 Aperture macros list end*
%TA.AperFunction,SMDPad,CuDef*%
%ADD10R,0.740000X2.400000*%
%TD*%
%TA.AperFunction,SMDPad,CuDef*%
%ADD11R,2.000000X1.500000*%
%TD*%
%TA.AperFunction,SMDPad,CuDef*%
%ADD12R,2.000000X3.800000*%
%TD*%
%TA.AperFunction,ComponentPad*%
%ADD13RoundRect,0.250001X0.759999X-0.499999X0.759999X0.499999X-0.759999X0.499999X-0.759999X-0.499999X0*%
%TD*%
%TA.AperFunction,ComponentPad*%
%ADD14O,2.020000X1.500000*%
%TD*%
%TA.AperFunction,SMDPad,CuDef*%
%ADD15RoundRect,0.250000X-0.450000X0.262500X-0.450000X-0.262500X0.450000X-0.262500X0.450000X0.262500X0*%
%TD*%
%TA.AperFunction,ComponentPad*%
%ADD16R,1.600000X1.600000*%
%TD*%
%TA.AperFunction,ComponentPad*%
%ADD17O,1.600000X1.600000*%
%TD*%
%TA.AperFunction,SMDPad,CuDef*%
%ADD18RoundRect,0.250000X0.450000X-0.262500X0.450000X0.262500X-0.450000X0.262500X-0.450000X-0.262500X0*%
%TD*%
%TA.AperFunction,ComponentPad*%
%ADD19R,1.500000X2.500000*%
%TD*%
%TA.AperFunction,ComponentPad*%
%ADD20O,1.500000X2.500000*%
%TD*%
%TA.AperFunction,ComponentPad*%
%ADD21RoundRect,0.250000X0.845000X-0.620000X0.845000X0.620000X-0.845000X0.620000X-0.845000X-0.620000X0*%
%TD*%
%TA.AperFunction,ComponentPad*%
%ADD22O,2.190000X1.740000*%
%TD*%
%TA.AperFunction,SMDPad,CuDef*%
%ADD23RoundRect,0.250000X-0.475000X0.250000X-0.475000X-0.250000X0.475000X-0.250000X0.475000X0.250000X0*%
%TD*%
%TA.AperFunction,SMDPad,CuDef*%
%ADD24RoundRect,0.250000X0.475000X-0.250000X0.475000X0.250000X-0.475000X0.250000X-0.475000X-0.250000X0*%
%TD*%
%TA.AperFunction,SMDPad,CuDef*%
%ADD25R,2.000000X0.900000*%
%TD*%
%TA.AperFunction,SMDPad,CuDef*%
%ADD26R,0.900000X2.000000*%
%TD*%
%TA.AperFunction,SMDPad,CuDef*%
%ADD27R,5.000000X5.000000*%
%TD*%
%TA.AperFunction,ViaPad*%
%ADD28C,0.800000*%
%TD*%
%TA.AperFunction,Conductor*%
%ADD29C,0.250000*%
%TD*%
%TA.AperFunction,Conductor*%
%ADD30C,1.000000*%
%TD*%
%TA.AperFunction,Conductor*%
%ADD31C,0.500000*%
%TD*%
G04 APERTURE END LIST*
D10*
%TO.P,J2,1,Pin_1*%
%TO.N,EN*%
X139960000Y-98500000D03*
%TO.P,J2,2,Pin_2*%
%TO.N,+3V3*%
X139960000Y-94600000D03*
%TO.P,J2,3,Pin_3*%
%TO.N,TX*%
X141230000Y-98500000D03*
%TO.P,J2,4,Pin_4*%
%TO.N,GND*%
X141230000Y-94600000D03*
%TO.P,J2,5,Pin_5*%
%TO.N,RX*%
X142500000Y-98500000D03*
%TO.P,J2,6,Pin_6*%
%TO.N,D0*%
X142500000Y-94600000D03*
%TD*%
D11*
%TO.P,U2,1,GND*%
%TO.N,GND*%
X101500000Y-93500000D03*
%TO.P,U2,2,VO*%
%TO.N,+3V3*%
X101500000Y-95800000D03*
%TO.P,U2,3,VI*%
%TO.N,+5V*%
X101500000Y-98100000D03*
D12*
%TO.P,U2,4*%
%TO.N,N/C*%
X107800000Y-95800000D03*
%TD*%
D13*
%TO.P,J1,1,Pin_1*%
%TO.N,+12V*%
X105470000Y-78500000D03*
D14*
%TO.P,J1,2,Pin_2*%
%TO.N,GND*%
X105470000Y-75500000D03*
%TD*%
D15*
%TO.P,R1,1*%
%TO.N,+3V3*%
X112000000Y-80500000D03*
%TO.P,R1,2*%
%TO.N,EN*%
X112000000Y-82325000D03*
%TD*%
D16*
%TO.P,A1,1,GND*%
%TO.N,GND*%
X151700000Y-91000000D03*
D17*
%TO.P,A1,2,VDD*%
%TO.N,+5V*%
X151700000Y-88460000D03*
%TO.P,A1,3,1B*%
%TO.N,/RED*%
X151700000Y-85920000D03*
%TO.P,A1,4,1A*%
%TO.N,/BLUE*%
X151700000Y-83380000D03*
%TO.P,A1,5,2A*%
%TO.N,/Green*%
X151700000Y-80840000D03*
%TO.P,A1,6,2B*%
%TO.N,/Black*%
X151700000Y-78300000D03*
%TO.P,A1,7,GND*%
%TO.N,GND*%
X151700000Y-75760000D03*
%TO.P,A1,8,VMOT*%
%TO.N,+12V*%
X151700000Y-73220000D03*
%TO.P,A1,9,~{ENABLE}*%
%TO.N,Enable*%
X139000000Y-73220000D03*
%TO.P,A1,10,MS1*%
%TO.N,+3V3*%
X139000000Y-75760000D03*
%TO.P,A1,11,MS2*%
X139000000Y-78300000D03*
%TO.P,A1,12,MS3*%
X139000000Y-80840000D03*
%TO.P,A1,13,~{RESET}*%
%TO.N,Net-(A1-Pad13)*%
X139000000Y-83380000D03*
%TO.P,A1,14,~{SLEEP}*%
X139000000Y-85920000D03*
%TO.P,A1,15,STEP*%
%TO.N,STEP*%
X139000000Y-88460000D03*
%TO.P,A1,16,DIR*%
%TO.N,unconnected-(A1-Pad16)*%
X139000000Y-91000000D03*
%TD*%
D18*
%TO.P,R2,1*%
%TO.N,+3V3*%
X145000000Y-96500000D03*
%TO.P,R2,2*%
%TO.N,D0*%
X145000000Y-94675000D03*
%TD*%
D19*
%TO.P,U1,1,Vin*%
%TO.N,+12V*%
X99567500Y-88182500D03*
D20*
%TO.P,U1,2,GND*%
%TO.N,GND*%
X102107500Y-88182500D03*
%TO.P,U1,3,Vout*%
%TO.N,+5V*%
X104647500Y-88182500D03*
%TD*%
D21*
%TO.P,J3,1,Pin_1*%
%TO.N,/RED*%
X158500000Y-86580000D03*
D22*
%TO.P,J3,2,Pin_2*%
%TO.N,/BLUE*%
X158500000Y-84040000D03*
%TO.P,J3,3,Pin_3*%
%TO.N,/Green*%
X158500000Y-81500000D03*
%TO.P,J3,4,Pin_4*%
%TO.N,/Black*%
X158500000Y-78960000D03*
%TD*%
D23*
%TO.P,C4,1*%
%TO.N,+3V3*%
X110000000Y-80500000D03*
%TO.P,C4,2*%
%TO.N,GND*%
X110000000Y-82400000D03*
%TD*%
D24*
%TO.P,C3,1*%
%TO.N,+3V3*%
X99150000Y-94750000D03*
%TO.P,C3,2*%
%TO.N,GND*%
X99150000Y-92850000D03*
%TD*%
D25*
%TO.P,U3,1,GND*%
%TO.N,GND*%
X114670000Y-79225000D03*
%TO.P,U3,2,VDD*%
%TO.N,+3V3*%
X114670000Y-80495000D03*
%TO.P,U3,3,EN*%
%TO.N,EN*%
X114670000Y-81765000D03*
%TO.P,U3,4,SENSOR_VP*%
%TO.N,unconnected-(U3-Pad4)*%
X114670000Y-83035000D03*
%TO.P,U3,5,SENSOR_VN*%
%TO.N,unconnected-(U3-Pad5)*%
X114670000Y-84305000D03*
%TO.P,U3,6,IO34*%
%TO.N,unconnected-(U3-Pad6)*%
X114670000Y-85575000D03*
%TO.P,U3,7,IO35*%
%TO.N,unconnected-(U3-Pad7)*%
X114670000Y-86845000D03*
%TO.P,U3,8,IO32*%
%TO.N,unconnected-(U3-Pad8)*%
X114670000Y-88115000D03*
%TO.P,U3,9,IO33*%
%TO.N,unconnected-(U3-Pad9)*%
X114670000Y-89385000D03*
%TO.P,U3,10,IO25*%
%TO.N,unconnected-(U3-Pad10)*%
X114670000Y-90655000D03*
%TO.P,U3,11,IO26*%
%TO.N,unconnected-(U3-Pad11)*%
X114670000Y-91925000D03*
%TO.P,U3,12,IO27*%
%TO.N,unconnected-(U3-Pad12)*%
X114670000Y-93195000D03*
%TO.P,U3,13,IO14*%
%TO.N,unconnected-(U3-Pad13)*%
X114670000Y-94465000D03*
%TO.P,U3,14,IO12*%
%TO.N,unconnected-(U3-Pad14)*%
X114670000Y-95735000D03*
D26*
%TO.P,U3,15,GND*%
%TO.N,GND*%
X117455000Y-96735000D03*
%TO.P,U3,16,IO13*%
%TO.N,unconnected-(U3-Pad16)*%
X118725000Y-96735000D03*
%TO.P,U3,17,SHD/SD2*%
%TO.N,unconnected-(U3-Pad17)*%
X119995000Y-96735000D03*
%TO.P,U3,18,SWP/SD3*%
%TO.N,unconnected-(U3-Pad18)*%
X121265000Y-96735000D03*
%TO.P,U3,19,SCS/CMD*%
%TO.N,unconnected-(U3-Pad19)*%
X122535000Y-96735000D03*
%TO.P,U3,20,SCK/CLK*%
%TO.N,unconnected-(U3-Pad20)*%
X123805000Y-96735000D03*
%TO.P,U3,21,SDO/SD0*%
%TO.N,unconnected-(U3-Pad21)*%
X125075000Y-96735000D03*
%TO.P,U3,22,SDI/SD1*%
%TO.N,unconnected-(U3-Pad22)*%
X126345000Y-96735000D03*
%TO.P,U3,23,IO15*%
%TO.N,unconnected-(U3-Pad23)*%
X127615000Y-96735000D03*
%TO.P,U3,24,IO2*%
%TO.N,unconnected-(U3-Pad24)*%
X128885000Y-96735000D03*
D25*
%TO.P,U3,25,IO0*%
%TO.N,D0*%
X131670000Y-95735000D03*
%TO.P,U3,26,IO4*%
%TO.N,unconnected-(U3-Pad26)*%
X131670000Y-94465000D03*
%TO.P,U3,27,IO16*%
%TO.N,unconnected-(U3-Pad27)*%
X131670000Y-93195000D03*
%TO.P,U3,28,IO17*%
%TO.N,unconnected-(U3-Pad28)*%
X131670000Y-91925000D03*
%TO.P,U3,29,IO5*%
%TO.N,unconnected-(U3-Pad29)*%
X131670000Y-90655000D03*
%TO.P,U3,30,IO18*%
%TO.N,DIR*%
X131670000Y-89385000D03*
%TO.P,U3,31,IO19*%
%TO.N,STEP*%
X131670000Y-88115000D03*
%TO.P,U3,32,NC*%
%TO.N,unconnected-(U3-Pad32)*%
X131670000Y-86845000D03*
%TO.P,U3,33,IO21*%
%TO.N,Enable*%
X131670000Y-85575000D03*
%TO.P,U3,34,RXD0/IO3*%
%TO.N,RX*%
X131670000Y-84305000D03*
%TO.P,U3,35,TXD0/IO1*%
%TO.N,TX*%
X131670000Y-83035000D03*
%TO.P,U3,36,IO22*%
%TO.N,unconnected-(U3-Pad36)*%
X131670000Y-81765000D03*
%TO.P,U3,37,IO23*%
%TO.N,unconnected-(U3-Pad37)*%
X131670000Y-80495000D03*
%TO.P,U3,38,GND*%
%TO.N,GND*%
X131670000Y-79225000D03*
D27*
%TO.P,U3,39,GND*%
X122170000Y-86725000D03*
%TD*%
D23*
%TO.P,C2,1*%
%TO.N,+5V*%
X99150000Y-96400000D03*
%TO.P,C2,2*%
%TO.N,GND*%
X99150000Y-98300000D03*
%TD*%
%TO.P,C1,1*%
%TO.N,+12V*%
X97150000Y-92900000D03*
%TO.P,C1,2*%
%TO.N,GND*%
X97150000Y-94800000D03*
%TD*%
D28*
%TO.N,GND*%
X99500000Y-99500000D03*
X103000000Y-93500000D03*
X117819240Y-95345532D03*
X110000000Y-83500000D03*
X142000000Y-91400011D03*
X123000000Y-90000000D03*
X133500000Y-79500000D03*
X116500000Y-79000000D03*
%TO.N,+3V3*%
X103376322Y-95376322D03*
X106000000Y-93000000D03*
X116500000Y-80500000D03*
%TO.N,RX*%
X134000000Y-99224500D03*
X129500000Y-84500000D03*
X129345112Y-93806971D03*
X133500000Y-84500000D03*
%TO.N,D0*%
X143400000Y-94600000D03*
X138000000Y-95775500D03*
%TD*%
D29*
%TO.N,GND*%
X116275000Y-79225000D02*
X116500000Y-79000000D01*
X141230000Y-94600000D02*
X141230000Y-92770000D01*
X110000000Y-82400000D02*
X110000000Y-83500000D01*
X122170000Y-89170000D02*
X123000000Y-90000000D01*
X122170000Y-86725000D02*
X122170000Y-89170000D01*
X97150000Y-96300000D02*
X97150000Y-94800000D01*
X99800000Y-93500000D02*
X99150000Y-92850000D01*
X99150000Y-98300000D02*
X99150000Y-99150000D01*
X101500000Y-93500000D02*
X103000000Y-93500000D01*
X141230000Y-92770000D02*
X142000000Y-92000000D01*
X117455000Y-95709772D02*
X117819240Y-95345532D01*
X142000000Y-92000000D02*
X142000000Y-91400011D01*
X117455000Y-96735000D02*
X117455000Y-95709772D01*
X99150000Y-99150000D02*
X99500000Y-99500000D01*
X97200000Y-94800000D02*
X99150000Y-92850000D01*
X133225000Y-79225000D02*
X133500000Y-79500000D01*
X99150000Y-98300000D02*
X97150000Y-96300000D01*
X101500000Y-93500000D02*
X99800000Y-93500000D01*
X131670000Y-79225000D02*
X133225000Y-79225000D01*
X114670000Y-79225000D02*
X116275000Y-79225000D01*
X97150000Y-94800000D02*
X97200000Y-94800000D01*
%TO.N,Enable*%
X137875489Y-84124511D02*
X136425000Y-85575000D01*
X136425000Y-85575000D02*
X131670000Y-85575000D01*
X137875489Y-74344511D02*
X137875489Y-84124511D01*
X139000000Y-73220000D02*
X137875489Y-74344511D01*
D30*
%TO.N,+5V*%
X104647500Y-88182500D02*
X104647500Y-95801522D01*
X102349022Y-98100000D02*
X101500000Y-98100000D01*
X101500000Y-98100000D02*
X101017824Y-98100000D01*
X99317824Y-96400000D02*
X99150000Y-96400000D01*
X104647500Y-95801522D02*
X102349022Y-98100000D01*
X101017824Y-98100000D02*
X99317824Y-96400000D01*
%TO.N,+3V3*%
X106000000Y-93000000D02*
X107500000Y-91500000D01*
D29*
X141030000Y-96500000D02*
X139960000Y-95430000D01*
X139000000Y-75760000D02*
X139000000Y-78300000D01*
D31*
X116495000Y-80495000D02*
X116500000Y-80500000D01*
D29*
X139960000Y-95430000D02*
X139960000Y-94600000D01*
D31*
X114670000Y-80495000D02*
X116495000Y-80495000D01*
X110000000Y-80500000D02*
X114665000Y-80500000D01*
D30*
X102952644Y-95800000D02*
X103376322Y-95376322D01*
D29*
X139000000Y-80840000D02*
X139840000Y-80840000D01*
X139000000Y-80840000D02*
X139000000Y-78300000D01*
D30*
X108500000Y-80500000D02*
X110000000Y-80500000D01*
X107500000Y-91500000D02*
X107500000Y-81500000D01*
X101500000Y-95800000D02*
X100900480Y-95200480D01*
D29*
X139840000Y-80840000D02*
X141000000Y-82000000D01*
D30*
X99600480Y-95200480D02*
X99150000Y-94750000D01*
X101500000Y-95800000D02*
X102952644Y-95800000D01*
X100900480Y-95200480D02*
X99600480Y-95200480D01*
D29*
X141000000Y-92000000D02*
X139960000Y-93040000D01*
D30*
X107500000Y-81500000D02*
X108500000Y-80500000D01*
D29*
X141000000Y-82000000D02*
X141000000Y-92000000D01*
X145000000Y-96500000D02*
X141030000Y-96500000D01*
X139960000Y-93040000D02*
X139960000Y-94600000D01*
D31*
X114665000Y-80500000D02*
X114670000Y-80495000D01*
D30*
%TO.N,/RED*%
X158500000Y-86580000D02*
X152360000Y-86580000D01*
X152360000Y-86580000D02*
X151700000Y-85920000D01*
%TO.N,/BLUE*%
X151700000Y-83380000D02*
X157840000Y-83380000D01*
X157840000Y-83380000D02*
X158500000Y-84040000D01*
%TO.N,/Green*%
X152360000Y-81500000D02*
X151700000Y-80840000D01*
X158500000Y-81500000D02*
X152360000Y-81500000D01*
D29*
%TO.N,Net-(A1-Pad13)*%
X139000000Y-85920000D02*
X139000000Y-83380000D01*
D30*
%TO.N,/Black*%
X151700000Y-78300000D02*
X157840000Y-78300000D01*
X157840000Y-78300000D02*
X158500000Y-78960000D01*
D29*
%TO.N,STEP*%
X139000000Y-88460000D02*
X132015000Y-88460000D01*
X132015000Y-88460000D02*
X131670000Y-88115000D01*
D30*
%TO.N,+12V*%
X99567500Y-88182500D02*
X97150000Y-90600000D01*
X97150000Y-90600000D02*
X97150000Y-92900000D01*
D29*
%TO.N,EN*%
X127000000Y-92500000D02*
X129659511Y-95159511D01*
X115765000Y-81765000D02*
X117000000Y-83000000D01*
D31*
X112560000Y-81765000D02*
X114670000Y-81765000D01*
D29*
X118500000Y-92500000D02*
X127000000Y-92500000D01*
X130864282Y-98500000D02*
X139960000Y-98500000D01*
X114670000Y-81765000D02*
X115765000Y-81765000D01*
X117000000Y-83000000D02*
X117000000Y-91000000D01*
X117000000Y-91000000D02*
X118500000Y-92500000D01*
X129659511Y-97295229D02*
X130864282Y-98500000D01*
X129659511Y-95159511D02*
X129659511Y-97295229D01*
D31*
X112000000Y-82325000D02*
X112560000Y-81765000D01*
D29*
%TO.N,TX*%
X140060000Y-96500000D02*
X137000000Y-96500000D01*
X130345489Y-83154511D02*
X130465000Y-83035000D01*
X141230000Y-98500000D02*
X141230000Y-97670000D01*
X130345489Y-97345489D02*
X130345489Y-83154511D01*
X130465000Y-83035000D02*
X131670000Y-83035000D01*
X137000000Y-96500000D02*
X135500000Y-98000000D01*
X141230000Y-97670000D02*
X140060000Y-96500000D01*
X135500000Y-98000000D02*
X131000000Y-98000000D01*
X131000000Y-98000000D02*
X130345489Y-97345489D01*
%TO.N,RX*%
X133500000Y-84500000D02*
X131865000Y-84500000D01*
X141449022Y-100500000D02*
X135275500Y-100500000D01*
X142500000Y-99449022D02*
X141449022Y-100500000D01*
X129345112Y-93806971D02*
X129500000Y-93652083D01*
X142500000Y-98500000D02*
X142500000Y-99449022D01*
X131865000Y-84500000D02*
X131670000Y-84305000D01*
X135275500Y-100500000D02*
X134000000Y-99224500D01*
X129500000Y-93652083D02*
X129500000Y-84500000D01*
%TO.N,D0*%
X131670000Y-95735000D02*
X137959500Y-95735000D01*
X145000000Y-94675000D02*
X144925000Y-94600000D01*
X144925000Y-94600000D02*
X143400000Y-94600000D01*
X137959500Y-95735000D02*
X138000000Y-95775500D01*
X143400000Y-94600000D02*
X142500000Y-94600000D01*
%TD*%
%TA.AperFunction,Conductor*%
%TO.N,+3V3*%
G36*
X108942121Y-70528002D02*
G01*
X108988614Y-70581658D01*
X109000000Y-70634000D01*
X109000000Y-77500000D01*
X137115989Y-77500000D01*
X137184110Y-77520002D01*
X137230603Y-77573658D01*
X137241989Y-77626000D01*
X137241989Y-83809916D01*
X137221987Y-83878037D01*
X137205084Y-83899011D01*
X136199500Y-84904595D01*
X136137188Y-84938621D01*
X136110405Y-84941500D01*
X134485225Y-84941500D01*
X134417104Y-84921498D01*
X134370611Y-84867842D01*
X134360507Y-84797568D01*
X134365392Y-84776564D01*
X134391502Y-84696206D01*
X134393542Y-84689928D01*
X134401493Y-84614284D01*
X134412814Y-84506565D01*
X134413504Y-84500000D01*
X134401543Y-84386198D01*
X134394232Y-84316635D01*
X134394232Y-84316633D01*
X134393542Y-84310072D01*
X134334527Y-84128444D01*
X134318013Y-84099840D01*
X134281587Y-84036749D01*
X134239040Y-83963056D01*
X134111253Y-83821134D01*
X133967237Y-83716500D01*
X133962094Y-83712763D01*
X133962093Y-83712762D01*
X133956752Y-83708882D01*
X133950724Y-83706198D01*
X133950722Y-83706197D01*
X133788319Y-83633891D01*
X133788318Y-83633891D01*
X133782288Y-83631206D01*
X133688887Y-83611353D01*
X133601944Y-83592872D01*
X133601939Y-83592872D01*
X133595487Y-83591500D01*
X133404513Y-83591500D01*
X133398061Y-83592872D01*
X133398056Y-83592872D01*
X133330697Y-83607190D01*
X133259906Y-83601788D01*
X133203273Y-83558971D01*
X133178780Y-83492333D01*
X133178500Y-83483943D01*
X133178500Y-82536866D01*
X133171745Y-82474684D01*
X133160328Y-82444229D01*
X133155145Y-82373423D01*
X133160326Y-82355776D01*
X133171745Y-82325316D01*
X133178500Y-82263134D01*
X133178500Y-81266866D01*
X133171745Y-81204684D01*
X133160328Y-81174229D01*
X133155145Y-81103423D01*
X133160326Y-81085776D01*
X133171745Y-81055316D01*
X133178500Y-80993134D01*
X133178500Y-80516057D01*
X133198502Y-80447936D01*
X133252158Y-80401443D01*
X133322432Y-80391339D01*
X133330697Y-80392810D01*
X133398056Y-80407128D01*
X133398061Y-80407128D01*
X133404513Y-80408500D01*
X133595487Y-80408500D01*
X133601939Y-80407128D01*
X133601944Y-80407128D01*
X133702399Y-80385775D01*
X133782288Y-80368794D01*
X133794810Y-80363219D01*
X133950722Y-80293803D01*
X133950724Y-80293802D01*
X133956752Y-80291118D01*
X134111253Y-80178866D01*
X134115675Y-80173955D01*
X134234621Y-80041852D01*
X134234622Y-80041851D01*
X134239040Y-80036944D01*
X134313197Y-79908500D01*
X134331223Y-79877279D01*
X134331224Y-79877278D01*
X134334527Y-79871556D01*
X134393542Y-79689928D01*
X134396993Y-79657099D01*
X134412814Y-79506565D01*
X134413504Y-79500000D01*
X134411525Y-79481172D01*
X134394232Y-79316635D01*
X134394232Y-79316633D01*
X134393542Y-79310072D01*
X134334527Y-79128444D01*
X134239040Y-78963056D01*
X134212793Y-78933905D01*
X134115675Y-78826045D01*
X134115674Y-78826044D01*
X134111253Y-78821134D01*
X133956752Y-78708882D01*
X133950724Y-78706198D01*
X133950722Y-78706197D01*
X133788319Y-78633891D01*
X133788318Y-78633891D01*
X133782288Y-78631206D01*
X133688887Y-78611353D01*
X133601944Y-78592872D01*
X133601939Y-78592872D01*
X133595487Y-78591500D01*
X133404513Y-78591500D01*
X133378996Y-78596924D01*
X133321466Y-78595720D01*
X133305030Y-78591500D01*
X133284776Y-78591500D01*
X133265065Y-78589949D01*
X133252886Y-78588020D01*
X133245057Y-78586780D01*
X133237165Y-78587526D01*
X133229242Y-78587277D01*
X133229293Y-78585657D01*
X133168655Y-78573909D01*
X133121362Y-78527735D01*
X133120615Y-78528295D01*
X133117015Y-78523491D01*
X133117013Y-78523490D01*
X133115230Y-78521110D01*
X133115229Y-78521108D01*
X133038642Y-78418919D01*
X133033261Y-78411739D01*
X132916705Y-78324385D01*
X132780316Y-78273255D01*
X132718134Y-78266500D01*
X130621866Y-78266500D01*
X130559684Y-78273255D01*
X130423295Y-78324385D01*
X130306739Y-78411739D01*
X130219385Y-78528295D01*
X130168255Y-78664684D01*
X130161500Y-78726866D01*
X130161500Y-79723134D01*
X130168255Y-79785316D01*
X130179672Y-79815771D01*
X130184855Y-79886577D01*
X130179674Y-79904224D01*
X130168255Y-79934684D01*
X130161500Y-79996866D01*
X130161500Y-80993134D01*
X130168255Y-81055316D01*
X130179672Y-81085771D01*
X130184855Y-81156577D01*
X130179674Y-81174224D01*
X130168255Y-81204684D01*
X130161500Y-81266866D01*
X130161500Y-82263134D01*
X130168255Y-82325316D01*
X130171028Y-82332712D01*
X130171029Y-82332715D01*
X130176498Y-82347304D01*
X130181681Y-82418111D01*
X130147760Y-82480480D01*
X130132576Y-82493471D01*
X130121613Y-82501436D01*
X130111693Y-82507952D01*
X130080465Y-82526420D01*
X130080462Y-82526422D01*
X130073638Y-82530458D01*
X130059314Y-82544782D01*
X130044287Y-82557617D01*
X130027893Y-82569528D01*
X130022840Y-82575636D01*
X130022838Y-82575638D01*
X129999708Y-82603598D01*
X129991718Y-82612378D01*
X129953238Y-82650858D01*
X129944949Y-82658401D01*
X129938471Y-82662511D01*
X129933048Y-82668286D01*
X129891861Y-82712147D01*
X129889105Y-82714991D01*
X129869354Y-82734741D01*
X129866874Y-82737938D01*
X129859171Y-82746958D01*
X129828903Y-82779190D01*
X129825084Y-82786136D01*
X129825082Y-82786139D01*
X129819141Y-82796945D01*
X129808290Y-82813464D01*
X129795875Y-82829470D01*
X129792730Y-82836739D01*
X129792727Y-82836743D01*
X129778315Y-82870048D01*
X129773098Y-82880698D01*
X129751794Y-82919451D01*
X129749823Y-82927126D01*
X129749823Y-82927127D01*
X129746756Y-82939073D01*
X129740352Y-82957777D01*
X129737612Y-82964110D01*
X129732308Y-82976366D01*
X129731069Y-82984189D01*
X129731066Y-82984199D01*
X129725390Y-83020035D01*
X129722984Y-83031655D01*
X129715683Y-83060092D01*
X129711989Y-83074481D01*
X129711989Y-83094735D01*
X129710438Y-83114445D01*
X129707269Y-83134454D01*
X129708015Y-83142346D01*
X129711430Y-83178472D01*
X129711989Y-83190330D01*
X129711989Y-83465500D01*
X129691987Y-83533621D01*
X129638331Y-83580114D01*
X129585989Y-83591500D01*
X129404513Y-83591500D01*
X129398061Y-83592872D01*
X129398056Y-83592872D01*
X129311113Y-83611353D01*
X129217712Y-83631206D01*
X129211682Y-83633891D01*
X129211681Y-83633891D01*
X129049278Y-83706197D01*
X129049276Y-83706198D01*
X129043248Y-83708882D01*
X129037907Y-83712762D01*
X129037906Y-83712763D01*
X129032763Y-83716500D01*
X128888747Y-83821134D01*
X128760960Y-83963056D01*
X128718413Y-84036749D01*
X128681988Y-84099840D01*
X128665473Y-84128444D01*
X128606458Y-84310072D01*
X128605768Y-84316633D01*
X128605768Y-84316635D01*
X128598457Y-84386198D01*
X128586496Y-84500000D01*
X128587186Y-84506565D01*
X128598508Y-84614284D01*
X128606458Y-84689928D01*
X128665473Y-84871556D01*
X128760960Y-85036944D01*
X128834137Y-85118215D01*
X128864853Y-85182221D01*
X128866500Y-85202524D01*
X128866500Y-92967535D01*
X128846498Y-93035656D01*
X128814561Y-93069471D01*
X128793328Y-93084898D01*
X128733859Y-93128105D01*
X128729437Y-93133016D01*
X128729435Y-93133018D01*
X128723275Y-93139859D01*
X128662829Y-93177098D01*
X128591845Y-93175745D01*
X128540546Y-93144642D01*
X128060687Y-92664782D01*
X127503652Y-92107747D01*
X127496112Y-92099461D01*
X127492000Y-92092982D01*
X127478209Y-92080031D01*
X127442349Y-92046357D01*
X127439507Y-92043602D01*
X127419770Y-92023865D01*
X127416573Y-92021385D01*
X127407551Y-92013680D01*
X127375321Y-91983414D01*
X127368375Y-91979595D01*
X127368372Y-91979593D01*
X127357566Y-91973652D01*
X127341047Y-91962801D01*
X127340583Y-91962441D01*
X127325041Y-91950386D01*
X127317772Y-91947241D01*
X127317768Y-91947238D01*
X127284463Y-91932826D01*
X127273813Y-91927609D01*
X127235060Y-91906305D01*
X127215437Y-91901267D01*
X127196734Y-91894863D01*
X127185420Y-91889967D01*
X127185419Y-91889967D01*
X127178145Y-91886819D01*
X127170322Y-91885580D01*
X127170312Y-91885577D01*
X127134476Y-91879901D01*
X127122856Y-91877495D01*
X127087711Y-91868472D01*
X127087710Y-91868472D01*
X127080030Y-91866500D01*
X127059776Y-91866500D01*
X127040065Y-91864949D01*
X127027886Y-91863020D01*
X127020057Y-91861780D01*
X127012165Y-91862526D01*
X126976039Y-91865941D01*
X126964181Y-91866500D01*
X118814595Y-91866500D01*
X118746474Y-91846498D01*
X118725500Y-91829595D01*
X117670405Y-90774500D01*
X117636379Y-90712188D01*
X117633500Y-90685405D01*
X117633500Y-89273134D01*
X119161500Y-89273134D01*
X119168255Y-89335316D01*
X119219385Y-89471705D01*
X119306739Y-89588261D01*
X119423295Y-89675615D01*
X119559684Y-89726745D01*
X119621866Y-89733500D01*
X121785406Y-89733500D01*
X121853527Y-89753502D01*
X121874501Y-89770405D01*
X122052878Y-89948782D01*
X122086904Y-90011094D01*
X122089092Y-90024703D01*
X122093247Y-90064231D01*
X122102861Y-90155700D01*
X122106458Y-90189928D01*
X122165473Y-90371556D01*
X122260960Y-90536944D01*
X122265378Y-90541851D01*
X122265379Y-90541852D01*
X122384325Y-90673955D01*
X122388747Y-90678866D01*
X122543248Y-90791118D01*
X122549276Y-90793802D01*
X122549278Y-90793803D01*
X122693825Y-90858159D01*
X122717712Y-90868794D01*
X122811112Y-90888647D01*
X122898056Y-90907128D01*
X122898061Y-90907128D01*
X122904513Y-90908500D01*
X123095487Y-90908500D01*
X123101939Y-90907128D01*
X123101944Y-90907128D01*
X123188888Y-90888647D01*
X123282288Y-90868794D01*
X123306175Y-90858159D01*
X123450722Y-90793803D01*
X123450724Y-90793802D01*
X123456752Y-90791118D01*
X123611253Y-90678866D01*
X123615675Y-90673955D01*
X123734621Y-90541852D01*
X123734622Y-90541851D01*
X123739040Y-90536944D01*
X123834527Y-90371556D01*
X123893542Y-90189928D01*
X123896666Y-90160211D01*
X123912814Y-90006565D01*
X123913504Y-90000000D01*
X123900121Y-89872670D01*
X123912893Y-89802832D01*
X123961395Y-89750986D01*
X124025431Y-89733500D01*
X124718134Y-89733500D01*
X124780316Y-89726745D01*
X124916705Y-89675615D01*
X125033261Y-89588261D01*
X125120615Y-89471705D01*
X125171745Y-89335316D01*
X125178500Y-89273134D01*
X125178500Y-84176866D01*
X125171745Y-84114684D01*
X125120615Y-83978295D01*
X125033261Y-83861739D01*
X124916705Y-83774385D01*
X124780316Y-83723255D01*
X124718134Y-83716500D01*
X119621866Y-83716500D01*
X119559684Y-83723255D01*
X119423295Y-83774385D01*
X119306739Y-83861739D01*
X119219385Y-83978295D01*
X119168255Y-84114684D01*
X119161500Y-84176866D01*
X119161500Y-89273134D01*
X117633500Y-89273134D01*
X117633500Y-83078768D01*
X117634027Y-83067585D01*
X117635702Y-83060092D01*
X117633562Y-82992001D01*
X117633500Y-82988044D01*
X117633500Y-82960144D01*
X117632996Y-82956153D01*
X117632063Y-82944311D01*
X117631899Y-82939073D01*
X117630674Y-82900111D01*
X117628462Y-82892497D01*
X117628461Y-82892492D01*
X117625023Y-82880659D01*
X117621012Y-82861295D01*
X117619467Y-82849064D01*
X117618474Y-82841203D01*
X117615557Y-82833836D01*
X117615556Y-82833831D01*
X117602198Y-82800092D01*
X117598354Y-82788865D01*
X117592618Y-82769124D01*
X117586018Y-82746407D01*
X117575707Y-82728972D01*
X117567012Y-82711224D01*
X117559552Y-82692383D01*
X117533564Y-82656613D01*
X117527048Y-82646693D01*
X117508580Y-82615465D01*
X117508578Y-82615462D01*
X117504542Y-82608638D01*
X117490221Y-82594317D01*
X117477380Y-82579283D01*
X117473920Y-82574521D01*
X117465472Y-82562893D01*
X117431395Y-82534702D01*
X117422616Y-82526712D01*
X116268652Y-81372747D01*
X116261112Y-81364461D01*
X116257000Y-81357982D01*
X116214581Y-81318148D01*
X116178616Y-81256938D01*
X116175571Y-81239905D01*
X116172599Y-81212541D01*
X116172598Y-81212537D01*
X116171745Y-81204684D01*
X116160061Y-81173517D01*
X116154878Y-81102712D01*
X116160061Y-81085057D01*
X116168479Y-81062602D01*
X116172105Y-81047351D01*
X116177631Y-80996486D01*
X116178000Y-80989672D01*
X116178000Y-80767115D01*
X116173525Y-80751876D01*
X116172135Y-80750671D01*
X116164452Y-80749000D01*
X113265745Y-80749000D01*
X113230971Y-80754000D01*
X108785116Y-80754000D01*
X108769877Y-80758475D01*
X108768672Y-80759865D01*
X108767001Y-80767548D01*
X108767001Y-80797095D01*
X108767338Y-80803614D01*
X108777257Y-80899206D01*
X108780149Y-80912600D01*
X108831588Y-81066784D01*
X108837761Y-81079962D01*
X108923063Y-81217807D01*
X108932099Y-81229208D01*
X109046828Y-81343738D01*
X109055762Y-81350794D01*
X109096823Y-81408712D01*
X109100053Y-81479635D01*
X109064426Y-81541046D01*
X109056593Y-81547846D01*
X109050652Y-81551522D01*
X108925695Y-81676697D01*
X108921855Y-81682927D01*
X108921854Y-81682928D01*
X108848348Y-81802177D01*
X108832885Y-81827262D01*
X108777203Y-81995139D01*
X108776503Y-82001975D01*
X108776502Y-82001978D01*
X108774117Y-82025256D01*
X108766500Y-82099600D01*
X108766500Y-82700400D01*
X108766837Y-82703646D01*
X108766837Y-82703650D01*
X108775679Y-82788865D01*
X108777474Y-82806166D01*
X108779655Y-82812702D01*
X108779655Y-82812704D01*
X108811461Y-82908036D01*
X108833450Y-82973946D01*
X108926522Y-83124348D01*
X109051697Y-83249305D01*
X109054691Y-83251151D01*
X109094851Y-83307790D01*
X109101008Y-83361928D01*
X109086496Y-83500000D01*
X109087186Y-83506565D01*
X109104364Y-83670000D01*
X109106458Y-83689928D01*
X109165473Y-83871556D01*
X109260960Y-84036944D01*
X109265378Y-84041851D01*
X109265379Y-84041852D01*
X109384325Y-84173955D01*
X109388747Y-84178866D01*
X109543248Y-84291118D01*
X109549276Y-84293802D01*
X109549278Y-84293803D01*
X109711681Y-84366109D01*
X109717712Y-84368794D01*
X109799591Y-84386198D01*
X109898056Y-84407128D01*
X109898061Y-84407128D01*
X109904513Y-84408500D01*
X110095487Y-84408500D01*
X110101939Y-84407128D01*
X110101944Y-84407128D01*
X110200409Y-84386198D01*
X110282288Y-84368794D01*
X110288319Y-84366109D01*
X110450722Y-84293803D01*
X110450724Y-84293802D01*
X110456752Y-84291118D01*
X110611253Y-84178866D01*
X110615675Y-84173955D01*
X110734621Y-84041852D01*
X110734622Y-84041851D01*
X110739040Y-84036944D01*
X110834527Y-83871556D01*
X110893542Y-83689928D01*
X110895637Y-83670000D01*
X110912814Y-83506565D01*
X110913504Y-83500000D01*
X110898993Y-83361935D01*
X110911765Y-83292097D01*
X110945207Y-83251041D01*
X110949348Y-83248478D01*
X110965544Y-83232254D01*
X111027824Y-83198175D01*
X111098644Y-83203176D01*
X111120833Y-83214011D01*
X111220090Y-83275194D01*
X111227262Y-83279615D01*
X111307005Y-83306064D01*
X111388611Y-83333132D01*
X111388613Y-83333132D01*
X111395139Y-83335297D01*
X111401975Y-83335997D01*
X111401978Y-83335998D01*
X111445031Y-83340409D01*
X111499600Y-83346000D01*
X112500400Y-83346000D01*
X112503646Y-83345663D01*
X112503650Y-83345663D01*
X112599308Y-83335738D01*
X112599312Y-83335737D01*
X112606166Y-83335026D01*
X112612702Y-83332845D01*
X112612704Y-83332845D01*
X112748492Y-83287542D01*
X112773946Y-83279050D01*
X112924348Y-83185978D01*
X112929521Y-83180796D01*
X112929526Y-83180792D01*
X112946328Y-83163961D01*
X113008610Y-83129882D01*
X113079431Y-83134885D01*
X113136303Y-83177383D01*
X113161171Y-83243882D01*
X113161500Y-83252979D01*
X113161500Y-83533134D01*
X113168255Y-83595316D01*
X113179672Y-83625771D01*
X113184855Y-83696577D01*
X113179674Y-83714224D01*
X113168255Y-83744684D01*
X113161500Y-83806866D01*
X113161500Y-84803134D01*
X113168255Y-84865316D01*
X113179672Y-84895771D01*
X113184855Y-84966577D01*
X113179674Y-84984224D01*
X113168255Y-85014684D01*
X113161500Y-85076866D01*
X113161500Y-86073134D01*
X113168255Y-86135316D01*
X113179672Y-86165771D01*
X113184855Y-86236577D01*
X113179674Y-86254224D01*
X113168255Y-86284684D01*
X113161500Y-86346866D01*
X113161500Y-87343134D01*
X113168255Y-87405316D01*
X113179672Y-87435771D01*
X113184855Y-87506577D01*
X113179674Y-87524224D01*
X113168255Y-87554684D01*
X113161500Y-87616866D01*
X113161500Y-88613134D01*
X113168255Y-88675316D01*
X113179672Y-88705771D01*
X113184855Y-88776577D01*
X113179674Y-88794224D01*
X113168255Y-88824684D01*
X113161500Y-88886866D01*
X113161500Y-89883134D01*
X113168255Y-89945316D01*
X113179672Y-89975771D01*
X113184855Y-90046577D01*
X113179674Y-90064224D01*
X113168255Y-90094684D01*
X113161500Y-90156866D01*
X113161500Y-91153134D01*
X113168255Y-91215316D01*
X113179672Y-91245771D01*
X113184855Y-91316577D01*
X113179674Y-91334224D01*
X113168255Y-91364684D01*
X113161500Y-91426866D01*
X113161500Y-92423134D01*
X113168255Y-92485316D01*
X113179672Y-92515771D01*
X113184855Y-92586577D01*
X113179674Y-92604224D01*
X113168255Y-92634684D01*
X113161500Y-92696866D01*
X113161500Y-93693134D01*
X113168255Y-93755316D01*
X113179672Y-93785771D01*
X113184855Y-93856577D01*
X113179674Y-93874224D01*
X113168255Y-93904684D01*
X113161500Y-93966866D01*
X113161500Y-94963134D01*
X113168255Y-95025316D01*
X113179672Y-95055771D01*
X113184855Y-95126577D01*
X113179674Y-95144224D01*
X113168255Y-95174684D01*
X113161500Y-95236866D01*
X113161500Y-96233134D01*
X113168255Y-96295316D01*
X113219385Y-96431705D01*
X113306739Y-96548261D01*
X113423295Y-96635615D01*
X113559684Y-96686745D01*
X113621866Y-96693500D01*
X115718134Y-96693500D01*
X115780316Y-96686745D01*
X115916705Y-96635615D01*
X116033261Y-96548261D01*
X116120615Y-96431705D01*
X116171745Y-96295316D01*
X116178500Y-96233134D01*
X116178500Y-95236866D01*
X116171745Y-95174684D01*
X116160328Y-95144229D01*
X116155145Y-95073423D01*
X116160326Y-95055776D01*
X116171745Y-95025316D01*
X116178500Y-94963134D01*
X116178500Y-93966866D01*
X116171745Y-93904684D01*
X116160328Y-93874229D01*
X116155145Y-93803423D01*
X116160326Y-93785776D01*
X116171745Y-93755316D01*
X116178500Y-93693134D01*
X116178500Y-92696866D01*
X116171745Y-92634684D01*
X116160328Y-92604229D01*
X116155145Y-92533423D01*
X116160326Y-92515776D01*
X116171745Y-92485316D01*
X116178500Y-92423134D01*
X116178500Y-91426866D01*
X116171745Y-91364684D01*
X116160328Y-91334229D01*
X116155145Y-91263423D01*
X116160328Y-91245771D01*
X116168801Y-91223169D01*
X116211442Y-91166404D01*
X116278004Y-91141704D01*
X116347352Y-91156911D01*
X116397471Y-91207197D01*
X116407779Y-91232242D01*
X116413982Y-91253593D01*
X116418015Y-91260412D01*
X116418017Y-91260417D01*
X116424293Y-91271028D01*
X116432988Y-91288776D01*
X116440448Y-91307617D01*
X116445110Y-91314033D01*
X116445110Y-91314034D01*
X116466436Y-91343387D01*
X116472952Y-91353307D01*
X116484327Y-91372540D01*
X116495458Y-91391362D01*
X116509779Y-91405683D01*
X116522619Y-91420716D01*
X116534528Y-91437107D01*
X116549198Y-91449243D01*
X116568605Y-91465298D01*
X116577384Y-91473288D01*
X117996343Y-92892247D01*
X118003887Y-92900537D01*
X118008000Y-92907018D01*
X118013777Y-92912443D01*
X118057667Y-92953658D01*
X118060509Y-92956413D01*
X118080230Y-92976134D01*
X118083425Y-92978612D01*
X118092447Y-92986318D01*
X118124679Y-93016586D01*
X118131628Y-93020406D01*
X118142432Y-93026346D01*
X118158956Y-93037199D01*
X118174959Y-93049613D01*
X118215543Y-93067176D01*
X118226173Y-93072383D01*
X118264940Y-93093695D01*
X118272617Y-93095666D01*
X118272622Y-93095668D01*
X118284558Y-93098732D01*
X118303266Y-93105137D01*
X118321855Y-93113181D01*
X118329680Y-93114420D01*
X118329682Y-93114421D01*
X118365519Y-93120097D01*
X118377140Y-93122504D01*
X118412289Y-93131528D01*
X118419970Y-93133500D01*
X118440231Y-93133500D01*
X118459940Y-93135051D01*
X118479943Y-93138219D01*
X118487835Y-93137473D01*
X118493062Y-93136979D01*
X118523954Y-93134059D01*
X118535811Y-93133500D01*
X126685406Y-93133500D01*
X126753527Y-93153502D01*
X126774501Y-93170405D01*
X128615501Y-95011405D01*
X128649527Y-95073717D01*
X128644462Y-95144532D01*
X128601915Y-95201368D01*
X128535395Y-95226179D01*
X128526406Y-95226500D01*
X128386866Y-95226500D01*
X128324684Y-95233255D01*
X128294229Y-95244672D01*
X128223423Y-95249855D01*
X128205776Y-95244674D01*
X128175316Y-95233255D01*
X128113134Y-95226500D01*
X127116866Y-95226500D01*
X127054684Y-95233255D01*
X127024229Y-95244672D01*
X126953423Y-95249855D01*
X126935776Y-95244674D01*
X126905316Y-95233255D01*
X126843134Y-95226500D01*
X125846866Y-95226500D01*
X125784684Y-95233255D01*
X125754229Y-95244672D01*
X125683423Y-95249855D01*
X125665776Y-95244674D01*
X125635316Y-95233255D01*
X125573134Y-95226500D01*
X124576866Y-95226500D01*
X124514684Y-95233255D01*
X124484229Y-95244672D01*
X124413423Y-95249855D01*
X124395776Y-95244674D01*
X124365316Y-95233255D01*
X124303134Y-95226500D01*
X123306866Y-95226500D01*
X123244684Y-95233255D01*
X123214229Y-95244672D01*
X123143423Y-95249855D01*
X123125776Y-95244674D01*
X123095316Y-95233255D01*
X123033134Y-95226500D01*
X122036866Y-95226500D01*
X121974684Y-95233255D01*
X121944229Y-95244672D01*
X121873423Y-95249855D01*
X121855776Y-95244674D01*
X121825316Y-95233255D01*
X121763134Y-95226500D01*
X120766866Y-95226500D01*
X120704684Y-95233255D01*
X120674229Y-95244672D01*
X120603423Y-95249855D01*
X120585776Y-95244674D01*
X120555316Y-95233255D01*
X120493134Y-95226500D01*
X119496866Y-95226500D01*
X119434684Y-95233255D01*
X119404229Y-95244672D01*
X119333423Y-95249855D01*
X119315776Y-95244674D01*
X119285316Y-95233255D01*
X119223134Y-95226500D01*
X118827362Y-95226500D01*
X118759241Y-95206498D01*
X118712748Y-95152842D01*
X118707529Y-95139437D01*
X118686175Y-95073717D01*
X118653767Y-94973976D01*
X118647508Y-94963134D01*
X118561581Y-94814306D01*
X118558280Y-94808588D01*
X118507099Y-94751745D01*
X118434915Y-94671577D01*
X118434914Y-94671576D01*
X118430493Y-94666666D01*
X118325100Y-94590093D01*
X118281334Y-94558295D01*
X118281333Y-94558294D01*
X118275992Y-94554414D01*
X118269964Y-94551730D01*
X118269962Y-94551729D01*
X118107559Y-94479423D01*
X118107558Y-94479423D01*
X118101528Y-94476738D01*
X118008127Y-94456885D01*
X117921184Y-94438404D01*
X117921179Y-94438404D01*
X117914727Y-94437032D01*
X117723753Y-94437032D01*
X117717301Y-94438404D01*
X117717296Y-94438404D01*
X117630352Y-94456885D01*
X117536952Y-94476738D01*
X117530922Y-94479423D01*
X117530921Y-94479423D01*
X117368518Y-94551729D01*
X117368516Y-94551730D01*
X117362488Y-94554414D01*
X117357147Y-94558294D01*
X117357146Y-94558295D01*
X117313380Y-94590093D01*
X117207987Y-94666666D01*
X117203566Y-94671576D01*
X117203565Y-94671577D01*
X117131382Y-94751745D01*
X117080200Y-94808588D01*
X117076899Y-94814306D01*
X116990973Y-94963134D01*
X116984713Y-94973976D01*
X116967211Y-95027842D01*
X116929296Y-95144532D01*
X116925698Y-95155604D01*
X116925218Y-95160172D01*
X116891842Y-95221988D01*
X116846556Y-95251297D01*
X116770767Y-95279709D01*
X116758295Y-95284385D01*
X116641739Y-95371739D01*
X116554385Y-95488295D01*
X116503255Y-95624684D01*
X116496500Y-95686866D01*
X116496500Y-97783134D01*
X116503255Y-97845316D01*
X116554385Y-97981705D01*
X116641739Y-98098261D01*
X116758295Y-98185615D01*
X116894684Y-98236745D01*
X116956866Y-98243500D01*
X117953134Y-98243500D01*
X118015316Y-98236745D01*
X118045771Y-98225328D01*
X118116577Y-98220145D01*
X118134224Y-98225326D01*
X118164684Y-98236745D01*
X118226866Y-98243500D01*
X119223134Y-98243500D01*
X119285316Y-98236745D01*
X119315771Y-98225328D01*
X119386577Y-98220145D01*
X119404224Y-98225326D01*
X119434684Y-98236745D01*
X119496866Y-98243500D01*
X120493134Y-98243500D01*
X120555316Y-98236745D01*
X120585771Y-98225328D01*
X120656577Y-98220145D01*
X120674224Y-98225326D01*
X120704684Y-98236745D01*
X120766866Y-98243500D01*
X121763134Y-98243500D01*
X121825316Y-98236745D01*
X121855771Y-98225328D01*
X121926577Y-98220145D01*
X121944224Y-98225326D01*
X121974684Y-98236745D01*
X122036866Y-98243500D01*
X123033134Y-98243500D01*
X123095316Y-98236745D01*
X123125771Y-98225328D01*
X123196577Y-98220145D01*
X123214224Y-98225326D01*
X123244684Y-98236745D01*
X123306866Y-98243500D01*
X124303134Y-98243500D01*
X124365316Y-98236745D01*
X124395771Y-98225328D01*
X124466577Y-98220145D01*
X124484224Y-98225326D01*
X124514684Y-98236745D01*
X124576866Y-98243500D01*
X125573134Y-98243500D01*
X125635316Y-98236745D01*
X125665771Y-98225328D01*
X125736577Y-98220145D01*
X125754224Y-98225326D01*
X125784684Y-98236745D01*
X125846866Y-98243500D01*
X126843134Y-98243500D01*
X126905316Y-98236745D01*
X126935771Y-98225328D01*
X127006577Y-98220145D01*
X127024224Y-98225326D01*
X127054684Y-98236745D01*
X127116866Y-98243500D01*
X128113134Y-98243500D01*
X128175316Y-98236745D01*
X128205771Y-98225328D01*
X128276577Y-98220145D01*
X128294224Y-98225326D01*
X128324684Y-98236745D01*
X128386866Y-98243500D01*
X129383134Y-98243500D01*
X129445316Y-98236745D01*
X129558322Y-98194381D01*
X129629128Y-98189198D01*
X129691646Y-98223268D01*
X130360625Y-98892247D01*
X130368169Y-98900537D01*
X130372282Y-98907018D01*
X130378059Y-98912443D01*
X130421949Y-98953658D01*
X130424791Y-98956413D01*
X130444512Y-98976134D01*
X130447707Y-98978612D01*
X130456729Y-98986318D01*
X130488961Y-99016586D01*
X130495910Y-99020406D01*
X130506714Y-99026346D01*
X130523238Y-99037199D01*
X130539241Y-99049613D01*
X130579825Y-99067176D01*
X130590455Y-99072383D01*
X130629222Y-99093695D01*
X130636899Y-99095666D01*
X130636904Y-99095668D01*
X130648840Y-99098732D01*
X130667548Y-99105137D01*
X130686137Y-99113181D01*
X130693962Y-99114420D01*
X130693964Y-99114421D01*
X130729801Y-99120097D01*
X130741422Y-99122504D01*
X130776571Y-99131528D01*
X130784252Y-99133500D01*
X130804513Y-99133500D01*
X130824222Y-99135051D01*
X130844225Y-99138219D01*
X130852117Y-99137473D01*
X130857344Y-99136979D01*
X130888236Y-99134059D01*
X130900093Y-99133500D01*
X132963480Y-99133500D01*
X133031601Y-99153502D01*
X133078094Y-99207158D01*
X133088790Y-99246329D01*
X133099539Y-99348595D01*
X133106458Y-99414428D01*
X133165473Y-99596056D01*
X133260960Y-99761444D01*
X133265378Y-99766351D01*
X133265379Y-99766352D01*
X133322323Y-99829595D01*
X133388747Y-99903366D01*
X133543248Y-100015618D01*
X133549276Y-100018302D01*
X133549278Y-100018303D01*
X133650256Y-100063261D01*
X133717712Y-100093294D01*
X133811112Y-100113147D01*
X133898056Y-100131628D01*
X133898061Y-100131628D01*
X133904513Y-100133000D01*
X133960406Y-100133000D01*
X134028527Y-100153002D01*
X134049501Y-100169905D01*
X134771843Y-100892247D01*
X134779387Y-100900537D01*
X134783500Y-100907018D01*
X134789277Y-100912443D01*
X134833167Y-100953658D01*
X134836009Y-100956413D01*
X134855730Y-100976134D01*
X134858925Y-100978612D01*
X134867947Y-100986318D01*
X134900179Y-101016586D01*
X134907128Y-101020406D01*
X134917932Y-101026346D01*
X134934456Y-101037199D01*
X134950459Y-101049613D01*
X134991043Y-101067176D01*
X135001673Y-101072383D01*
X135040440Y-101093695D01*
X135048117Y-101095666D01*
X135048122Y-101095668D01*
X135060058Y-101098732D01*
X135078766Y-101105137D01*
X135097355Y-101113181D01*
X135105180Y-101114420D01*
X135105182Y-101114421D01*
X135141019Y-101120097D01*
X135152640Y-101122504D01*
X135184459Y-101130673D01*
X135195470Y-101133500D01*
X135215731Y-101133500D01*
X135235440Y-101135051D01*
X135255443Y-101138219D01*
X135263335Y-101137473D01*
X135268562Y-101136979D01*
X135299454Y-101134059D01*
X135311311Y-101133500D01*
X141370255Y-101133500D01*
X141381438Y-101134027D01*
X141388931Y-101135702D01*
X141396857Y-101135453D01*
X141396858Y-101135453D01*
X141457008Y-101133562D01*
X141460967Y-101133500D01*
X141488878Y-101133500D01*
X141492813Y-101133003D01*
X141492878Y-101132995D01*
X141504715Y-101132062D01*
X141536973Y-101131048D01*
X141540992Y-101130922D01*
X141548911Y-101130673D01*
X141568365Y-101125021D01*
X141587722Y-101121013D01*
X141599952Y-101119468D01*
X141599953Y-101119468D01*
X141607819Y-101118474D01*
X141615190Y-101115555D01*
X141615192Y-101115555D01*
X141648934Y-101102196D01*
X141660164Y-101098351D01*
X141695005Y-101088229D01*
X141695006Y-101088229D01*
X141702615Y-101086018D01*
X141709434Y-101081985D01*
X141709439Y-101081983D01*
X141720050Y-101075707D01*
X141737798Y-101067012D01*
X141756639Y-101059552D01*
X141777009Y-101044753D01*
X141792409Y-101033564D01*
X141802329Y-101027048D01*
X141833557Y-101008580D01*
X141833560Y-101008578D01*
X141840384Y-101004542D01*
X141854705Y-100990221D01*
X141869739Y-100977380D01*
X141871454Y-100976134D01*
X141886129Y-100965472D01*
X141914320Y-100931395D01*
X141922310Y-100922616D01*
X142599521Y-100245405D01*
X142661833Y-100211379D01*
X142688616Y-100208500D01*
X142918134Y-100208500D01*
X142980316Y-100201745D01*
X143116705Y-100150615D01*
X143233261Y-100063261D01*
X143320615Y-99946705D01*
X143371745Y-99810316D01*
X143378500Y-99748134D01*
X143378500Y-97251866D01*
X143371745Y-97189684D01*
X143320615Y-97053295D01*
X143233261Y-96936739D01*
X143116705Y-96849385D01*
X143010565Y-96809595D01*
X143792001Y-96809595D01*
X143792338Y-96816114D01*
X143802257Y-96911706D01*
X143805149Y-96925100D01*
X143856588Y-97079284D01*
X143862761Y-97092462D01*
X143948063Y-97230307D01*
X143957099Y-97241708D01*
X144071829Y-97356239D01*
X144083240Y-97365251D01*
X144221243Y-97450316D01*
X144234424Y-97456463D01*
X144388710Y-97507638D01*
X144402086Y-97510505D01*
X144496438Y-97520172D01*
X144502854Y-97520500D01*
X144727885Y-97520500D01*
X144743124Y-97516025D01*
X144744329Y-97514635D01*
X144746000Y-97506952D01*
X144746000Y-97502384D01*
X145254000Y-97502384D01*
X145258475Y-97517623D01*
X145259865Y-97518828D01*
X145267548Y-97520499D01*
X145497095Y-97520499D01*
X145503614Y-97520162D01*
X145599206Y-97510243D01*
X145612600Y-97507351D01*
X145766784Y-97455912D01*
X145779962Y-97449739D01*
X145917807Y-97364437D01*
X145929208Y-97355401D01*
X146043739Y-97240671D01*
X146052751Y-97229260D01*
X146137816Y-97091257D01*
X146143963Y-97078076D01*
X146195138Y-96923790D01*
X146198005Y-96910414D01*
X146207672Y-96816062D01*
X146208000Y-96809646D01*
X146208000Y-96772115D01*
X146203525Y-96756876D01*
X146202135Y-96755671D01*
X146194452Y-96754000D01*
X145272115Y-96754000D01*
X145256876Y-96758475D01*
X145255671Y-96759865D01*
X145254000Y-96767548D01*
X145254000Y-97502384D01*
X144746000Y-97502384D01*
X144746000Y-96772115D01*
X144741525Y-96756876D01*
X144740135Y-96755671D01*
X144732452Y-96754000D01*
X143810116Y-96754000D01*
X143794877Y-96758475D01*
X143793672Y-96759865D01*
X143792001Y-96767548D01*
X143792001Y-96809595D01*
X143010565Y-96809595D01*
X142980316Y-96798255D01*
X142918134Y-96791500D01*
X142081866Y-96791500D01*
X142019684Y-96798255D01*
X142012288Y-96801027D01*
X142012282Y-96801029D01*
X141909229Y-96839662D01*
X141838422Y-96844845D01*
X141820771Y-96839662D01*
X141717718Y-96801029D01*
X141717712Y-96801027D01*
X141710316Y-96798255D01*
X141648134Y-96791500D01*
X141299595Y-96791500D01*
X141231474Y-96771498D01*
X141210499Y-96754595D01*
X140979500Y-96523595D01*
X140945475Y-96461283D01*
X140950540Y-96390467D01*
X140993087Y-96333632D01*
X141059608Y-96308821D01*
X141068596Y-96308500D01*
X141648134Y-96308500D01*
X141710316Y-96301745D01*
X141717712Y-96298973D01*
X141717718Y-96298971D01*
X141820771Y-96260338D01*
X141891578Y-96255155D01*
X141909229Y-96260338D01*
X142012282Y-96298971D01*
X142012288Y-96298973D01*
X142019684Y-96301745D01*
X142081866Y-96308500D01*
X142918134Y-96308500D01*
X142980316Y-96301745D01*
X143116705Y-96250615D01*
X143233261Y-96163261D01*
X143320615Y-96046705D01*
X143371745Y-95910316D01*
X143378500Y-95848134D01*
X143378500Y-95633553D01*
X143398502Y-95565432D01*
X143452158Y-95518939D01*
X143490389Y-95508500D01*
X143495487Y-95508500D01*
X143682288Y-95468794D01*
X143828895Y-95403521D01*
X143899260Y-95394087D01*
X143963557Y-95424193D01*
X143969160Y-95429455D01*
X144038463Y-95498638D01*
X144072542Y-95560921D01*
X144067539Y-95631741D01*
X144038618Y-95676829D01*
X143956261Y-95759329D01*
X143947249Y-95770740D01*
X143862184Y-95908743D01*
X143856037Y-95921924D01*
X143804862Y-96076210D01*
X143801995Y-96089586D01*
X143792328Y-96183938D01*
X143792000Y-96190355D01*
X143792000Y-96227885D01*
X143796475Y-96243124D01*
X143797865Y-96244329D01*
X143805548Y-96246000D01*
X146189884Y-96246000D01*
X146205123Y-96241525D01*
X146206328Y-96240135D01*
X146207999Y-96232452D01*
X146207999Y-96190405D01*
X146207662Y-96183886D01*
X146197743Y-96088294D01*
X146194851Y-96074900D01*
X146143412Y-95920716D01*
X146137239Y-95907538D01*
X146051937Y-95769693D01*
X146042901Y-95758292D01*
X145961538Y-95677070D01*
X145927459Y-95614787D01*
X145932462Y-95543967D01*
X145961383Y-95498880D01*
X146044130Y-95415988D01*
X146044134Y-95415983D01*
X146049305Y-95410803D01*
X146064208Y-95386626D01*
X146138275Y-95266468D01*
X146138276Y-95266466D01*
X146142115Y-95260238D01*
X146176820Y-95155604D01*
X146195632Y-95098889D01*
X146195632Y-95098887D01*
X146197797Y-95092361D01*
X146199738Y-95073423D01*
X146203909Y-95032712D01*
X146208500Y-94987900D01*
X146208500Y-94362100D01*
X146208163Y-94358850D01*
X146198238Y-94263192D01*
X146198237Y-94263188D01*
X146197526Y-94256334D01*
X146161400Y-94148050D01*
X146143868Y-94095502D01*
X146141550Y-94088554D01*
X146048478Y-93938152D01*
X145923303Y-93813195D01*
X145897906Y-93797540D01*
X145778968Y-93724225D01*
X145778966Y-93724224D01*
X145772738Y-93720385D01*
X145612254Y-93667155D01*
X145611389Y-93666868D01*
X145611387Y-93666868D01*
X145604861Y-93664703D01*
X145598025Y-93664003D01*
X145598022Y-93664002D01*
X145554969Y-93659591D01*
X145500400Y-93654000D01*
X144499600Y-93654000D01*
X144496354Y-93654337D01*
X144496350Y-93654337D01*
X144400692Y-93664262D01*
X144400688Y-93664263D01*
X144393834Y-93664974D01*
X144387298Y-93667155D01*
X144387296Y-93667155D01*
X144309428Y-93693134D01*
X144226054Y-93720950D01*
X144075652Y-93814022D01*
X144070478Y-93819205D01*
X144062697Y-93826999D01*
X144000414Y-93861077D01*
X143929594Y-93856072D01*
X143899465Y-93839915D01*
X143862094Y-93812763D01*
X143862093Y-93812762D01*
X143856752Y-93808882D01*
X143850724Y-93806198D01*
X143850722Y-93806197D01*
X143688319Y-93733891D01*
X143688318Y-93733891D01*
X143682288Y-93731206D01*
X143495487Y-93691500D01*
X143490705Y-93691500D01*
X143425673Y-93664744D01*
X143385043Y-93606523D01*
X143378500Y-93566447D01*
X143378500Y-93351866D01*
X143371745Y-93289684D01*
X143320615Y-93153295D01*
X143233261Y-93036739D01*
X143116705Y-92949385D01*
X142980316Y-92898255D01*
X142918134Y-92891500D01*
X142308594Y-92891500D01*
X142240473Y-92871498D01*
X142193980Y-92817842D01*
X142183876Y-92747568D01*
X142213370Y-92682988D01*
X142219499Y-92676405D01*
X142392247Y-92503657D01*
X142400537Y-92496113D01*
X142407018Y-92492000D01*
X142453659Y-92442332D01*
X142456413Y-92439491D01*
X142476134Y-92419770D01*
X142478612Y-92416575D01*
X142486318Y-92407553D01*
X142491882Y-92401628D01*
X142516586Y-92375321D01*
X142523662Y-92362449D01*
X142526346Y-92357568D01*
X142537199Y-92341045D01*
X142544753Y-92331306D01*
X142549613Y-92325041D01*
X142567176Y-92284457D01*
X142572383Y-92273827D01*
X142593695Y-92235060D01*
X142595666Y-92227383D01*
X142595668Y-92227378D01*
X142598732Y-92215442D01*
X142605138Y-92196730D01*
X142610034Y-92185417D01*
X142613181Y-92178145D01*
X142615539Y-92163261D01*
X142620097Y-92134481D01*
X142622504Y-92122860D01*
X142633500Y-92080031D01*
X142635686Y-92080592D01*
X142662557Y-92021898D01*
X142734621Y-91941863D01*
X142734622Y-91941862D01*
X142739040Y-91936955D01*
X142834527Y-91771567D01*
X142893542Y-91589939D01*
X142911039Y-91423469D01*
X142912814Y-91406576D01*
X142913504Y-91400011D01*
X142903793Y-91307617D01*
X142894232Y-91216646D01*
X142894232Y-91216644D01*
X142893542Y-91210083D01*
X142834527Y-91028455D01*
X142821260Y-91005475D01*
X142764479Y-90907128D01*
X142739040Y-90863067D01*
X142676675Y-90793803D01*
X142615675Y-90726056D01*
X142615674Y-90726055D01*
X142611253Y-90721145D01*
X142456752Y-90608893D01*
X142450724Y-90606209D01*
X142450722Y-90606208D01*
X142288319Y-90533902D01*
X142288318Y-90533902D01*
X142282288Y-90531217D01*
X142188887Y-90511364D01*
X142101944Y-90492883D01*
X142101939Y-90492883D01*
X142095487Y-90491511D01*
X141904513Y-90491511D01*
X141898061Y-90492883D01*
X141898056Y-90492883D01*
X141811113Y-90511364D01*
X141717712Y-90531217D01*
X141711682Y-90533902D01*
X141711681Y-90533902D01*
X141549278Y-90606208D01*
X141549276Y-90606209D01*
X141543248Y-90608893D01*
X141388747Y-90721145D01*
X141384326Y-90726055D01*
X141384325Y-90726056D01*
X141323326Y-90793803D01*
X141260960Y-90863067D01*
X141235521Y-90907128D01*
X141178741Y-91005475D01*
X141165473Y-91028455D01*
X141106458Y-91210083D01*
X141105768Y-91216644D01*
X141105768Y-91216646D01*
X141096207Y-91307617D01*
X141086496Y-91400011D01*
X141087186Y-91406576D01*
X141088962Y-91423469D01*
X141106458Y-91589939D01*
X141165473Y-91771567D01*
X141168777Y-91777289D01*
X141168777Y-91777290D01*
X141178278Y-91793746D01*
X141195016Y-91862742D01*
X141171795Y-91929833D01*
X141158254Y-91945841D01*
X140837747Y-92266348D01*
X140829461Y-92273888D01*
X140822982Y-92278000D01*
X140817557Y-92283777D01*
X140776357Y-92327651D01*
X140773602Y-92330493D01*
X140753865Y-92350230D01*
X140751385Y-92353427D01*
X140743682Y-92362447D01*
X140713414Y-92394679D01*
X140709595Y-92401625D01*
X140709593Y-92401628D01*
X140703652Y-92412434D01*
X140692801Y-92428953D01*
X140680386Y-92444959D01*
X140677241Y-92452228D01*
X140677238Y-92452232D01*
X140662826Y-92485537D01*
X140657609Y-92496187D01*
X140636305Y-92534940D01*
X140634334Y-92542615D01*
X140634334Y-92542616D01*
X140631267Y-92554562D01*
X140624863Y-92573266D01*
X140616819Y-92591855D01*
X140615580Y-92599678D01*
X140615577Y-92599688D01*
X140609901Y-92635524D01*
X140607495Y-92647144D01*
X140596500Y-92689970D01*
X140596500Y-92710224D01*
X140594949Y-92729934D01*
X140591780Y-92749943D01*
X140592526Y-92757833D01*
X140593198Y-92764941D01*
X140579696Y-92834642D01*
X140530654Y-92885978D01*
X140461643Y-92902652D01*
X140438610Y-92899383D01*
X140432349Y-92897894D01*
X140381486Y-92892369D01*
X140374672Y-92892000D01*
X140232115Y-92892000D01*
X140216876Y-92896475D01*
X140215671Y-92897865D01*
X140214000Y-92905548D01*
X140214000Y-94728000D01*
X140193998Y-94796121D01*
X140140342Y-94842614D01*
X140088000Y-94854000D01*
X139100116Y-94854000D01*
X139084877Y-94858475D01*
X139083672Y-94859865D01*
X139082001Y-94867548D01*
X139082001Y-95370058D01*
X139061999Y-95438179D01*
X139008343Y-95484672D01*
X138938069Y-95494776D01*
X138873489Y-95465282D01*
X138840589Y-95415662D01*
X138839253Y-95416257D01*
X138836569Y-95410228D01*
X138834527Y-95403944D01*
X138827343Y-95391500D01*
X138765499Y-95284385D01*
X138739040Y-95238556D01*
X138681530Y-95174684D01*
X138615675Y-95101545D01*
X138615674Y-95101544D01*
X138611253Y-95096634D01*
X138485586Y-95005331D01*
X138462094Y-94988263D01*
X138462093Y-94988262D01*
X138456752Y-94984382D01*
X138450724Y-94981698D01*
X138450722Y-94981697D01*
X138288319Y-94909391D01*
X138288318Y-94909391D01*
X138282288Y-94906706D01*
X138188887Y-94886853D01*
X138101944Y-94868372D01*
X138101939Y-94868372D01*
X138095487Y-94867000D01*
X137904513Y-94867000D01*
X137898061Y-94868372D01*
X137898056Y-94868372D01*
X137811113Y-94886853D01*
X137717712Y-94906706D01*
X137711682Y-94909391D01*
X137711681Y-94909391D01*
X137549278Y-94981697D01*
X137549276Y-94981698D01*
X137543248Y-94984382D01*
X137537907Y-94988262D01*
X137537906Y-94988263D01*
X137514414Y-95005331D01*
X137420290Y-95073717D01*
X137415171Y-95077436D01*
X137348304Y-95101294D01*
X137341110Y-95101500D01*
X133303830Y-95101500D01*
X133235709Y-95081498D01*
X133189216Y-95027842D01*
X133178015Y-94968683D01*
X133178132Y-94966520D01*
X133178500Y-94963134D01*
X133178500Y-94327885D01*
X139082000Y-94327885D01*
X139086475Y-94343124D01*
X139087865Y-94344329D01*
X139095548Y-94346000D01*
X139687885Y-94346000D01*
X139703124Y-94341525D01*
X139704329Y-94340135D01*
X139706000Y-94332452D01*
X139706000Y-92910116D01*
X139701525Y-92894877D01*
X139700135Y-92893672D01*
X139692452Y-92892001D01*
X139545331Y-92892001D01*
X139538510Y-92892371D01*
X139487648Y-92897895D01*
X139472396Y-92901521D01*
X139351946Y-92946676D01*
X139336351Y-92955214D01*
X139234276Y-93031715D01*
X139221715Y-93044276D01*
X139145214Y-93146351D01*
X139136676Y-93161946D01*
X139091522Y-93282394D01*
X139087895Y-93297649D01*
X139082369Y-93348514D01*
X139082000Y-93355328D01*
X139082000Y-94327885D01*
X133178500Y-94327885D01*
X133178500Y-93966866D01*
X133171745Y-93904684D01*
X133160328Y-93874229D01*
X133155145Y-93803423D01*
X133160326Y-93785776D01*
X133171745Y-93755316D01*
X133178500Y-93693134D01*
X133178500Y-92696866D01*
X133171745Y-92634684D01*
X133160328Y-92604229D01*
X133155145Y-92533423D01*
X133160326Y-92515776D01*
X133171745Y-92485316D01*
X133178500Y-92423134D01*
X133178500Y-91426866D01*
X133171745Y-91364684D01*
X133160328Y-91334229D01*
X133155145Y-91263423D01*
X133160326Y-91245776D01*
X133171745Y-91215316D01*
X133178500Y-91153134D01*
X133178500Y-90156866D01*
X133171745Y-90094684D01*
X133160328Y-90064229D01*
X133155145Y-89993423D01*
X133160326Y-89975776D01*
X133171745Y-89945316D01*
X133178500Y-89883134D01*
X133178500Y-89219500D01*
X133198502Y-89151379D01*
X133252158Y-89104886D01*
X133304500Y-89093500D01*
X137780606Y-89093500D01*
X137848727Y-89113502D01*
X137883819Y-89147229D01*
X137971979Y-89273134D01*
X137993802Y-89304300D01*
X138155700Y-89466198D01*
X138160208Y-89469355D01*
X138160211Y-89469357D01*
X138181168Y-89484031D01*
X138343251Y-89597523D01*
X138348233Y-89599846D01*
X138348238Y-89599849D01*
X138382457Y-89615805D01*
X138435742Y-89662722D01*
X138455203Y-89730999D01*
X138434661Y-89798959D01*
X138382457Y-89844195D01*
X138348238Y-89860151D01*
X138348233Y-89860154D01*
X138343251Y-89862477D01*
X138265634Y-89916825D01*
X138160211Y-89990643D01*
X138160208Y-89990645D01*
X138155700Y-89993802D01*
X137993802Y-90155700D01*
X137990645Y-90160208D01*
X137990643Y-90160211D01*
X137969835Y-90189928D01*
X137862477Y-90343251D01*
X137860154Y-90348233D01*
X137860151Y-90348238D01*
X137772157Y-90536944D01*
X137765716Y-90550757D01*
X137764294Y-90556065D01*
X137764293Y-90556067D01*
X137707881Y-90766598D01*
X137706457Y-90771913D01*
X137686502Y-91000000D01*
X137706457Y-91228087D01*
X137707881Y-91233400D01*
X137707881Y-91233402D01*
X137763818Y-91442158D01*
X137765716Y-91449243D01*
X137768039Y-91454224D01*
X137768039Y-91454225D01*
X137860151Y-91651762D01*
X137860154Y-91651767D01*
X137862477Y-91656749D01*
X137865634Y-91661257D01*
X137958404Y-91793746D01*
X137993802Y-91844300D01*
X138155700Y-92006198D01*
X138160208Y-92009355D01*
X138160211Y-92009357D01*
X138201542Y-92038297D01*
X138343251Y-92137523D01*
X138348233Y-92139846D01*
X138348238Y-92139849D01*
X138535947Y-92227378D01*
X138550757Y-92234284D01*
X138556065Y-92235706D01*
X138556067Y-92235707D01*
X138766598Y-92292119D01*
X138766600Y-92292119D01*
X138771913Y-92293543D01*
X139000000Y-92313498D01*
X139228087Y-92293543D01*
X139233400Y-92292119D01*
X139233402Y-92292119D01*
X139443933Y-92235707D01*
X139443935Y-92235706D01*
X139449243Y-92234284D01*
X139464053Y-92227378D01*
X139651762Y-92139849D01*
X139651767Y-92139846D01*
X139656749Y-92137523D01*
X139798458Y-92038297D01*
X139839789Y-92009357D01*
X139839792Y-92009355D01*
X139844300Y-92006198D01*
X140006198Y-91844300D01*
X140041597Y-91793746D01*
X140134366Y-91661257D01*
X140137523Y-91656749D01*
X140139846Y-91651767D01*
X140139849Y-91651762D01*
X140231961Y-91454225D01*
X140231961Y-91454224D01*
X140234284Y-91449243D01*
X140236183Y-91442158D01*
X140292119Y-91233402D01*
X140292119Y-91233400D01*
X140293543Y-91228087D01*
X140313498Y-91000000D01*
X140293543Y-90771913D01*
X140292119Y-90766598D01*
X140235707Y-90556067D01*
X140235706Y-90556065D01*
X140234284Y-90550757D01*
X140227843Y-90536944D01*
X140139849Y-90348238D01*
X140139846Y-90348233D01*
X140137523Y-90343251D01*
X140030165Y-90189928D01*
X140009357Y-90160211D01*
X140009355Y-90160208D01*
X140006198Y-90155700D01*
X139844300Y-89993802D01*
X139839792Y-89990645D01*
X139839789Y-89990643D01*
X139734366Y-89916825D01*
X139656749Y-89862477D01*
X139651767Y-89860154D01*
X139651762Y-89860151D01*
X139617543Y-89844195D01*
X139564258Y-89797278D01*
X139544797Y-89729001D01*
X139565339Y-89661041D01*
X139617543Y-89615805D01*
X139651762Y-89599849D01*
X139651767Y-89599846D01*
X139656749Y-89597523D01*
X139818832Y-89484031D01*
X139839789Y-89469357D01*
X139839792Y-89469355D01*
X139844300Y-89466198D01*
X140006198Y-89304300D01*
X140030414Y-89269717D01*
X140092180Y-89181505D01*
X140137523Y-89116749D01*
X140139846Y-89111767D01*
X140139849Y-89111762D01*
X140231961Y-88914225D01*
X140231961Y-88914224D01*
X140234284Y-88909243D01*
X140239365Y-88890283D01*
X140292119Y-88693402D01*
X140292119Y-88693400D01*
X140293543Y-88688087D01*
X140313498Y-88460000D01*
X150386502Y-88460000D01*
X150406457Y-88688087D01*
X150407881Y-88693400D01*
X150407881Y-88693402D01*
X150460636Y-88890283D01*
X150465716Y-88909243D01*
X150468039Y-88914224D01*
X150468039Y-88914225D01*
X150560151Y-89111762D01*
X150560154Y-89111767D01*
X150562477Y-89116749D01*
X150607820Y-89181505D01*
X150669587Y-89269717D01*
X150693802Y-89304300D01*
X150855700Y-89466198D01*
X150860211Y-89469357D01*
X150864424Y-89472892D01*
X150863473Y-89474026D01*
X150903471Y-89524071D01*
X150910776Y-89594690D01*
X150878742Y-89658049D01*
X150817538Y-89694030D01*
X150800483Y-89697082D01*
X150789684Y-89698255D01*
X150653295Y-89749385D01*
X150536739Y-89836739D01*
X150449385Y-89953295D01*
X150398255Y-90089684D01*
X150391500Y-90151866D01*
X150391500Y-91848134D01*
X150398255Y-91910316D01*
X150449385Y-92046705D01*
X150536739Y-92163261D01*
X150653295Y-92250615D01*
X150789684Y-92301745D01*
X150851866Y-92308500D01*
X152548134Y-92308500D01*
X152610316Y-92301745D01*
X152746705Y-92250615D01*
X152863261Y-92163261D01*
X152950615Y-92046705D01*
X153001745Y-91910316D01*
X153008500Y-91848134D01*
X153008500Y-90151866D01*
X153001745Y-90089684D01*
X152950615Y-89953295D01*
X152863261Y-89836739D01*
X152746705Y-89749385D01*
X152610316Y-89698255D01*
X152599526Y-89697083D01*
X152597394Y-89696197D01*
X152594778Y-89695575D01*
X152594879Y-89695152D01*
X152533965Y-89669845D01*
X152493537Y-89611483D01*
X152491078Y-89540529D01*
X152527371Y-89479510D01*
X152536031Y-89472511D01*
X152539793Y-89469354D01*
X152544300Y-89466198D01*
X152706198Y-89304300D01*
X152730414Y-89269717D01*
X152792180Y-89181505D01*
X152837523Y-89116749D01*
X152839846Y-89111767D01*
X152839849Y-89111762D01*
X152931961Y-88914225D01*
X152931961Y-88914224D01*
X152934284Y-88909243D01*
X152939365Y-88890283D01*
X152992119Y-88693402D01*
X152992119Y-88693400D01*
X152993543Y-88688087D01*
X153013498Y-88460000D01*
X152993543Y-88231913D01*
X152934284Y-88010757D01*
X152911817Y-87962575D01*
X152839849Y-87808238D01*
X152839846Y-87808233D01*
X152837523Y-87803251D01*
X152834369Y-87798747D01*
X152834364Y-87798738D01*
X152825983Y-87786769D01*
X152803296Y-87719495D01*
X152820582Y-87650634D01*
X152872353Y-87602051D01*
X152929197Y-87588500D01*
X156933194Y-87588500D01*
X157001315Y-87608502D01*
X157040337Y-87648195D01*
X157052669Y-87668123D01*
X157052673Y-87668128D01*
X157056522Y-87674348D01*
X157181697Y-87799305D01*
X157187927Y-87803145D01*
X157187928Y-87803146D01*
X157325090Y-87887694D01*
X157332262Y-87892115D01*
X157412005Y-87918564D01*
X157493611Y-87945632D01*
X157493613Y-87945632D01*
X157500139Y-87947797D01*
X157506975Y-87948497D01*
X157506978Y-87948498D01*
X157550031Y-87952909D01*
X157604600Y-87958500D01*
X159395400Y-87958500D01*
X159398646Y-87958163D01*
X159398650Y-87958163D01*
X159494308Y-87948238D01*
X159494312Y-87948237D01*
X159501166Y-87947526D01*
X159507702Y-87945345D01*
X159507704Y-87945345D01*
X159639806Y-87901272D01*
X159668946Y-87891550D01*
X159819348Y-87798478D01*
X159944305Y-87673303D01*
X159948146Y-87667072D01*
X160033275Y-87528968D01*
X160033276Y-87528966D01*
X160037115Y-87522738D01*
X160092797Y-87354861D01*
X160093651Y-87346531D01*
X160102795Y-87257278D01*
X160103500Y-87250400D01*
X160103500Y-85909600D01*
X160092526Y-85803834D01*
X160036550Y-85636054D01*
X159943478Y-85485652D01*
X159818303Y-85360695D01*
X159667738Y-85267885D01*
X159669062Y-85265738D01*
X159624710Y-85226688D01*
X159605248Y-85158411D01*
X159625788Y-85090451D01*
X159644272Y-85068239D01*
X159757306Y-84960410D01*
X159757316Y-84960398D01*
X159761168Y-84956724D01*
X159900813Y-84769035D01*
X159935605Y-84700606D01*
X160004420Y-84565256D01*
X160004420Y-84565255D01*
X160006838Y-84560500D01*
X160076210Y-84337083D01*
X160080622Y-84303794D01*
X160106248Y-84110455D01*
X160106248Y-84110451D01*
X160106948Y-84105171D01*
X160098172Y-83871396D01*
X160064073Y-83708882D01*
X160051229Y-83647668D01*
X160051228Y-83647665D01*
X160050132Y-83642441D01*
X159964203Y-83424854D01*
X159908545Y-83333132D01*
X159845609Y-83229417D01*
X159845607Y-83229414D01*
X159842841Y-83224856D01*
X159689517Y-83048166D01*
X159508614Y-82899835D01*
X159503984Y-82897199D01*
X159503979Y-82897196D01*
X159471484Y-82878699D01*
X159422178Y-82827616D01*
X159408317Y-82757985D01*
X159434301Y-82691915D01*
X159463450Y-82664677D01*
X159541132Y-82612378D01*
X159591896Y-82578202D01*
X159601222Y-82569306D01*
X159694335Y-82480480D01*
X159761168Y-82416724D01*
X159900813Y-82229035D01*
X159903415Y-82223919D01*
X160004420Y-82025256D01*
X160004420Y-82025255D01*
X160006838Y-82020500D01*
X160076210Y-81797083D01*
X160090685Y-81687875D01*
X160106248Y-81570455D01*
X160106248Y-81570451D01*
X160106948Y-81565171D01*
X160098172Y-81331396D01*
X160055915Y-81130000D01*
X160051229Y-81107668D01*
X160051228Y-81107665D01*
X160050132Y-81102441D01*
X159964203Y-80884854D01*
X159914905Y-80803614D01*
X159845609Y-80689417D01*
X159845607Y-80689414D01*
X159842841Y-80684856D01*
X159689517Y-80508166D01*
X159508614Y-80359835D01*
X159503984Y-80357199D01*
X159503979Y-80357196D01*
X159471484Y-80338699D01*
X159422178Y-80287616D01*
X159408317Y-80217985D01*
X159434301Y-80151915D01*
X159463450Y-80124677D01*
X159504885Y-80096781D01*
X159591896Y-80038202D01*
X159636450Y-79995700D01*
X159686631Y-79947829D01*
X159761168Y-79876724D01*
X159900813Y-79689035D01*
X159905984Y-79678866D01*
X160004420Y-79485256D01*
X160004420Y-79485255D01*
X160006838Y-79480500D01*
X160076210Y-79257083D01*
X160088719Y-79162703D01*
X160106248Y-79030455D01*
X160106248Y-79030451D01*
X160106948Y-79025171D01*
X160106317Y-79008347D01*
X160098372Y-78796727D01*
X160098172Y-78791396D01*
X160071585Y-78664684D01*
X160051229Y-78567668D01*
X160051228Y-78567665D01*
X160050132Y-78562441D01*
X159964203Y-78344854D01*
X159920238Y-78272402D01*
X159845609Y-78149417D01*
X159845607Y-78149414D01*
X159842841Y-78144856D01*
X159689517Y-77968166D01*
X159508614Y-77819835D01*
X159305305Y-77704104D01*
X159085404Y-77624284D01*
X159080155Y-77623335D01*
X159080152Y-77623334D01*
X158998960Y-77608652D01*
X158855197Y-77582656D01*
X158851058Y-77582461D01*
X158851051Y-77582460D01*
X158832172Y-77581570D01*
X158832165Y-77581570D01*
X158830684Y-77581500D01*
X158599194Y-77581500D01*
X158531073Y-77561498D01*
X158518062Y-77551525D01*
X158517925Y-77551691D01*
X158484651Y-77524358D01*
X158483853Y-77523696D01*
X158412526Y-77463846D01*
X158407856Y-77461278D01*
X158403739Y-77457897D01*
X158321914Y-77414023D01*
X158320755Y-77413394D01*
X158244619Y-77371538D01*
X158244611Y-77371535D01*
X158239213Y-77368567D01*
X158234131Y-77366955D01*
X158229437Y-77364438D01*
X158140469Y-77337238D01*
X158139441Y-77336918D01*
X158050694Y-77308765D01*
X158045398Y-77308171D01*
X158040302Y-77306613D01*
X157947743Y-77297210D01*
X157946607Y-77297089D01*
X157912992Y-77293319D01*
X157900270Y-77291892D01*
X157900266Y-77291892D01*
X157896773Y-77291500D01*
X157893246Y-77291500D01*
X157892261Y-77291445D01*
X157886581Y-77290998D01*
X157857175Y-77288011D01*
X157849663Y-77287248D01*
X157849661Y-77287248D01*
X157843538Y-77286626D01*
X157801259Y-77290623D01*
X157797891Y-77290941D01*
X157786033Y-77291500D01*
X152580740Y-77291500D01*
X152508469Y-77268713D01*
X152484890Y-77252203D01*
X152356749Y-77162477D01*
X152351767Y-77160154D01*
X152351762Y-77160151D01*
X152317543Y-77144195D01*
X152264258Y-77097278D01*
X152244797Y-77029001D01*
X152265339Y-76961041D01*
X152317543Y-76915805D01*
X152351762Y-76899849D01*
X152351767Y-76899846D01*
X152356749Y-76897523D01*
X152504682Y-76793939D01*
X152539789Y-76769357D01*
X152539792Y-76769355D01*
X152544300Y-76766198D01*
X152706198Y-76604300D01*
X152837523Y-76416749D01*
X152839846Y-76411767D01*
X152839849Y-76411762D01*
X152931961Y-76214225D01*
X152931961Y-76214224D01*
X152934284Y-76209243D01*
X152942907Y-76177064D01*
X152992119Y-75993402D01*
X152992119Y-75993400D01*
X152993543Y-75988087D01*
X153013498Y-75760000D01*
X152993543Y-75531913D01*
X152992119Y-75526598D01*
X152935707Y-75316067D01*
X152935706Y-75316065D01*
X152934284Y-75310757D01*
X152926994Y-75295123D01*
X152839849Y-75108238D01*
X152839846Y-75108233D01*
X152837523Y-75103251D01*
X152706198Y-74915700D01*
X152544300Y-74753802D01*
X152539792Y-74750645D01*
X152539789Y-74750643D01*
X152383115Y-74640939D01*
X152356749Y-74622477D01*
X152351767Y-74620154D01*
X152351762Y-74620151D01*
X152317543Y-74604195D01*
X152264258Y-74557278D01*
X152244797Y-74489001D01*
X152265339Y-74421041D01*
X152317543Y-74375805D01*
X152351762Y-74359849D01*
X152351767Y-74359846D01*
X152356749Y-74357523D01*
X152499075Y-74257865D01*
X152539789Y-74229357D01*
X152539792Y-74229355D01*
X152544300Y-74226198D01*
X152706198Y-74064300D01*
X152837523Y-73876749D01*
X152839846Y-73871767D01*
X152839849Y-73871762D01*
X152931961Y-73674225D01*
X152931961Y-73674224D01*
X152934284Y-73669243D01*
X152993543Y-73448087D01*
X153013498Y-73220000D01*
X152993543Y-72991913D01*
X152934284Y-72770757D01*
X152931961Y-72765775D01*
X152839849Y-72568238D01*
X152839846Y-72568233D01*
X152837523Y-72563251D01*
X152706198Y-72375700D01*
X152544300Y-72213802D01*
X152539792Y-72210645D01*
X152539789Y-72210643D01*
X152461611Y-72155902D01*
X152356749Y-72082477D01*
X152351767Y-72080154D01*
X152351762Y-72080151D01*
X152154225Y-71988039D01*
X152154224Y-71988039D01*
X152149243Y-71985716D01*
X152143935Y-71984294D01*
X152143933Y-71984293D01*
X151933402Y-71927881D01*
X151933400Y-71927881D01*
X151928087Y-71926457D01*
X151700000Y-71906502D01*
X151471913Y-71926457D01*
X151466600Y-71927881D01*
X151466598Y-71927881D01*
X151256067Y-71984293D01*
X151256065Y-71984294D01*
X151250757Y-71985716D01*
X151245776Y-71988039D01*
X151245775Y-71988039D01*
X151048238Y-72080151D01*
X151048233Y-72080154D01*
X151043251Y-72082477D01*
X150938389Y-72155902D01*
X150860211Y-72210643D01*
X150860208Y-72210645D01*
X150855700Y-72213802D01*
X150693802Y-72375700D01*
X150562477Y-72563251D01*
X150560154Y-72568233D01*
X150560151Y-72568238D01*
X150468039Y-72765775D01*
X150465716Y-72770757D01*
X150406457Y-72991913D01*
X150386502Y-73220000D01*
X150406457Y-73448087D01*
X150465716Y-73669243D01*
X150468039Y-73674224D01*
X150468039Y-73674225D01*
X150560151Y-73871762D01*
X150560154Y-73871767D01*
X150562477Y-73876749D01*
X150693802Y-74064300D01*
X150855700Y-74226198D01*
X150860208Y-74229355D01*
X150860211Y-74229357D01*
X150900925Y-74257865D01*
X151043251Y-74357523D01*
X151048233Y-74359846D01*
X151048238Y-74359849D01*
X151082457Y-74375805D01*
X151135742Y-74422722D01*
X151155203Y-74490999D01*
X151134661Y-74558959D01*
X151082457Y-74604195D01*
X151048238Y-74620151D01*
X151048233Y-74620154D01*
X151043251Y-74622477D01*
X151016885Y-74640939D01*
X150860211Y-74750643D01*
X150860208Y-74750645D01*
X150855700Y-74753802D01*
X150693802Y-74915700D01*
X150562477Y-75103251D01*
X150560154Y-75108233D01*
X150560151Y-75108238D01*
X150473006Y-75295123D01*
X150465716Y-75310757D01*
X150464294Y-75316065D01*
X150464293Y-75316067D01*
X150407881Y-75526598D01*
X150406457Y-75531913D01*
X150386502Y-75760000D01*
X150406457Y-75988087D01*
X150407881Y-75993400D01*
X150407881Y-75993402D01*
X150457094Y-76177064D01*
X150465716Y-76209243D01*
X150468039Y-76214224D01*
X150468039Y-76214225D01*
X150560151Y-76411762D01*
X150560154Y-76411767D01*
X150562477Y-76416749D01*
X150693802Y-76604300D01*
X150855700Y-76766198D01*
X150860208Y-76769355D01*
X150860211Y-76769357D01*
X150895318Y-76793939D01*
X151043251Y-76897523D01*
X151048233Y-76899846D01*
X151048238Y-76899849D01*
X151082457Y-76915805D01*
X151135742Y-76962722D01*
X151155203Y-77030999D01*
X151134661Y-77098959D01*
X151082457Y-77144195D01*
X151048238Y-77160151D01*
X151048233Y-77160154D01*
X151043251Y-77162477D01*
X150938389Y-77235902D01*
X150860211Y-77290643D01*
X150860208Y-77290645D01*
X150855700Y-77293802D01*
X150693802Y-77455700D01*
X150690645Y-77460208D01*
X150690643Y-77460211D01*
X150663953Y-77498329D01*
X150562477Y-77643251D01*
X150560154Y-77648233D01*
X150560151Y-77648238D01*
X150508879Y-77758193D01*
X150465716Y-77850757D01*
X150464294Y-77856065D01*
X150464293Y-77856067D01*
X150456157Y-77886431D01*
X150406457Y-78071913D01*
X150386502Y-78300000D01*
X150406457Y-78528087D01*
X150407881Y-78533400D01*
X150407881Y-78533402D01*
X150460636Y-78730283D01*
X150465716Y-78749243D01*
X150468039Y-78754224D01*
X150468039Y-78754225D01*
X150560151Y-78951762D01*
X150560154Y-78951767D01*
X150562477Y-78956749D01*
X150693802Y-79144300D01*
X150855700Y-79306198D01*
X150860208Y-79309355D01*
X150860211Y-79309357D01*
X150929051Y-79357559D01*
X151043251Y-79437523D01*
X151048233Y-79439846D01*
X151048238Y-79439849D01*
X151082457Y-79455805D01*
X151135742Y-79502722D01*
X151155203Y-79570999D01*
X151134661Y-79638959D01*
X151082457Y-79684195D01*
X151048238Y-79700151D01*
X151048233Y-79700154D01*
X151043251Y-79702477D01*
X150963711Y-79758172D01*
X150860211Y-79830643D01*
X150860208Y-79830645D01*
X150855700Y-79833802D01*
X150693802Y-79995700D01*
X150690645Y-80000208D01*
X150690643Y-80000211D01*
X150664042Y-80038202D01*
X150562477Y-80183251D01*
X150560154Y-80188233D01*
X150560151Y-80188238D01*
X150480135Y-80359835D01*
X150465716Y-80390757D01*
X150464295Y-80396062D01*
X150464293Y-80396067D01*
X150438722Y-80491500D01*
X150406457Y-80611913D01*
X150386502Y-80840000D01*
X150406457Y-81068087D01*
X150407881Y-81073400D01*
X150407881Y-81073402D01*
X150460636Y-81270283D01*
X150465716Y-81289243D01*
X150468039Y-81294224D01*
X150468039Y-81294225D01*
X150560151Y-81491762D01*
X150560154Y-81491767D01*
X150562477Y-81496749D01*
X150693802Y-81684300D01*
X150855700Y-81846198D01*
X150860208Y-81849355D01*
X150860211Y-81849357D01*
X150938389Y-81904098D01*
X151043251Y-81977523D01*
X151048233Y-81979846D01*
X151048238Y-81979849D01*
X151082457Y-81995805D01*
X151135742Y-82042722D01*
X151155203Y-82110999D01*
X151134661Y-82178959D01*
X151082457Y-82224195D01*
X151048238Y-82240151D01*
X151048233Y-82240154D01*
X151043251Y-82242477D01*
X150938389Y-82315902D01*
X150860211Y-82370643D01*
X150860208Y-82370645D01*
X150855700Y-82373802D01*
X150693802Y-82535700D01*
X150690645Y-82540208D01*
X150690643Y-82540211D01*
X150678298Y-82557842D01*
X150562477Y-82723251D01*
X150560154Y-82728233D01*
X150560151Y-82728238D01*
X150480135Y-82899835D01*
X150465716Y-82930757D01*
X150464294Y-82936065D01*
X150464293Y-82936067D01*
X150430870Y-83060803D01*
X150406457Y-83151913D01*
X150386502Y-83380000D01*
X150406457Y-83608087D01*
X150407881Y-83613400D01*
X150407881Y-83613402D01*
X150460636Y-83810283D01*
X150465716Y-83829243D01*
X150468039Y-83834224D01*
X150468039Y-83834225D01*
X150560151Y-84031762D01*
X150560154Y-84031767D01*
X150562477Y-84036749D01*
X150626683Y-84128444D01*
X150664708Y-84182749D01*
X150693802Y-84224300D01*
X150855700Y-84386198D01*
X150860208Y-84389355D01*
X150860211Y-84389357D01*
X150929051Y-84437559D01*
X151043251Y-84517523D01*
X151048233Y-84519846D01*
X151048238Y-84519849D01*
X151082457Y-84535805D01*
X151135742Y-84582722D01*
X151155203Y-84650999D01*
X151134661Y-84718959D01*
X151082457Y-84764195D01*
X151048238Y-84780151D01*
X151048233Y-84780154D01*
X151043251Y-84782477D01*
X150945986Y-84850583D01*
X150860211Y-84910643D01*
X150860208Y-84910645D01*
X150855700Y-84913802D01*
X150693802Y-85075700D01*
X150690645Y-85080208D01*
X150690643Y-85080211D01*
X150638865Y-85154158D01*
X150562477Y-85263251D01*
X150560154Y-85268233D01*
X150560151Y-85268238D01*
X150514627Y-85365866D01*
X150465716Y-85470757D01*
X150464295Y-85476062D01*
X150464293Y-85476067D01*
X150454768Y-85511616D01*
X150406457Y-85691913D01*
X150386502Y-85920000D01*
X150406457Y-86148087D01*
X150407881Y-86153400D01*
X150407881Y-86153402D01*
X150460636Y-86350283D01*
X150465716Y-86369243D01*
X150468039Y-86374224D01*
X150468039Y-86374225D01*
X150560151Y-86571762D01*
X150560154Y-86571767D01*
X150562477Y-86576749D01*
X150633800Y-86678609D01*
X150683066Y-86748967D01*
X150693802Y-86764300D01*
X150855700Y-86926198D01*
X150860208Y-86929355D01*
X150860211Y-86929357D01*
X150897970Y-86955796D01*
X151043251Y-87057523D01*
X151048233Y-87059846D01*
X151048238Y-87059849D01*
X151082457Y-87075805D01*
X151135742Y-87122722D01*
X151155203Y-87190999D01*
X151134661Y-87258959D01*
X151082457Y-87304195D01*
X151048238Y-87320151D01*
X151048233Y-87320154D01*
X151043251Y-87322477D01*
X150997002Y-87354861D01*
X150860211Y-87450643D01*
X150860208Y-87450645D01*
X150855700Y-87453802D01*
X150693802Y-87615700D01*
X150690645Y-87620208D01*
X150690643Y-87620211D01*
X150669341Y-87650634D01*
X150562477Y-87803251D01*
X150560154Y-87808233D01*
X150560151Y-87808238D01*
X150488183Y-87962575D01*
X150465716Y-88010757D01*
X150406457Y-88231913D01*
X150386502Y-88460000D01*
X140313498Y-88460000D01*
X140293543Y-88231913D01*
X140234284Y-88010757D01*
X140211817Y-87962575D01*
X140139849Y-87808238D01*
X140139846Y-87808233D01*
X140137523Y-87803251D01*
X140030659Y-87650634D01*
X140009357Y-87620211D01*
X140009355Y-87620208D01*
X140006198Y-87615700D01*
X139844300Y-87453802D01*
X139839792Y-87450645D01*
X139839789Y-87450643D01*
X139702998Y-87354861D01*
X139656749Y-87322477D01*
X139651767Y-87320154D01*
X139651762Y-87320151D01*
X139617543Y-87304195D01*
X139564258Y-87257278D01*
X139544797Y-87189001D01*
X139565339Y-87121041D01*
X139617543Y-87075805D01*
X139651762Y-87059849D01*
X139651767Y-87059846D01*
X139656749Y-87057523D01*
X139802030Y-86955796D01*
X139839789Y-86929357D01*
X139839792Y-86929355D01*
X139844300Y-86926198D01*
X140006198Y-86764300D01*
X140016935Y-86748967D01*
X140066200Y-86678609D01*
X140137523Y-86576749D01*
X140139846Y-86571767D01*
X140139849Y-86571762D01*
X140231961Y-86374225D01*
X140231961Y-86374224D01*
X140234284Y-86369243D01*
X140239365Y-86350283D01*
X140292119Y-86153402D01*
X140292119Y-86153400D01*
X140293543Y-86148087D01*
X140313498Y-85920000D01*
X140293543Y-85691913D01*
X140245232Y-85511616D01*
X140235707Y-85476067D01*
X140235705Y-85476062D01*
X140234284Y-85470757D01*
X140185373Y-85365866D01*
X140139849Y-85268238D01*
X140139846Y-85268233D01*
X140137523Y-85263251D01*
X140061135Y-85154158D01*
X140009357Y-85080211D01*
X140009355Y-85080208D01*
X140006198Y-85075700D01*
X139844300Y-84913802D01*
X139839792Y-84910645D01*
X139839789Y-84910643D01*
X139687229Y-84803819D01*
X139642901Y-84748362D01*
X139633500Y-84700606D01*
X139633500Y-84599394D01*
X139653502Y-84531273D01*
X139687229Y-84496181D01*
X139839789Y-84389357D01*
X139839792Y-84389355D01*
X139844300Y-84386198D01*
X140006198Y-84224300D01*
X140035293Y-84182749D01*
X140073317Y-84128444D01*
X140137523Y-84036749D01*
X140139846Y-84031767D01*
X140139849Y-84031762D01*
X140231961Y-83834225D01*
X140231961Y-83834224D01*
X140234284Y-83829243D01*
X140239365Y-83810283D01*
X140292119Y-83613402D01*
X140292119Y-83613400D01*
X140293543Y-83608087D01*
X140313498Y-83380000D01*
X140293543Y-83151913D01*
X140269130Y-83060803D01*
X140235707Y-82936067D01*
X140235706Y-82936065D01*
X140234284Y-82930757D01*
X140219865Y-82899835D01*
X140139849Y-82728238D01*
X140139846Y-82728233D01*
X140137523Y-82723251D01*
X140021702Y-82557842D01*
X140009357Y-82540211D01*
X140009355Y-82540208D01*
X140006198Y-82535700D01*
X139844300Y-82373802D01*
X139839792Y-82370645D01*
X139839789Y-82370643D01*
X139761611Y-82315902D01*
X139656749Y-82242477D01*
X139651767Y-82240154D01*
X139651762Y-82240151D01*
X139616951Y-82223919D01*
X139563666Y-82177002D01*
X139544205Y-82108725D01*
X139564747Y-82040765D01*
X139616951Y-81995529D01*
X139651511Y-81979414D01*
X139661007Y-81973931D01*
X139839467Y-81848972D01*
X139847875Y-81841916D01*
X140001916Y-81687875D01*
X140008972Y-81679467D01*
X140133931Y-81501007D01*
X140139414Y-81491511D01*
X140231490Y-81294053D01*
X140235236Y-81283761D01*
X140281394Y-81111497D01*
X140281058Y-81097401D01*
X140273116Y-81094000D01*
X138872000Y-81094000D01*
X138803879Y-81073998D01*
X138757386Y-81020342D01*
X138746000Y-80968000D01*
X138746000Y-80567885D01*
X139254000Y-80567885D01*
X139258475Y-80583124D01*
X139259865Y-80584329D01*
X139267548Y-80586000D01*
X140267967Y-80586000D01*
X140281498Y-80582027D01*
X140282727Y-80573478D01*
X140235236Y-80396239D01*
X140231490Y-80385947D01*
X140139414Y-80188489D01*
X140133931Y-80178993D01*
X140008972Y-80000533D01*
X140001916Y-79992125D01*
X139847875Y-79838084D01*
X139839467Y-79831028D01*
X139661007Y-79706069D01*
X139651511Y-79700586D01*
X139616359Y-79684195D01*
X139563074Y-79637278D01*
X139543613Y-79569001D01*
X139564155Y-79501041D01*
X139616359Y-79455805D01*
X139651511Y-79439414D01*
X139661007Y-79433931D01*
X139839467Y-79308972D01*
X139847875Y-79301916D01*
X140001916Y-79147875D01*
X140008972Y-79139467D01*
X140133931Y-78961007D01*
X140139414Y-78951511D01*
X140231490Y-78754053D01*
X140235236Y-78743761D01*
X140281394Y-78571497D01*
X140281058Y-78557401D01*
X140273116Y-78554000D01*
X139272115Y-78554000D01*
X139256876Y-78558475D01*
X139255671Y-78559865D01*
X139254000Y-78567548D01*
X139254000Y-80567885D01*
X138746000Y-80567885D01*
X138746000Y-78027885D01*
X139254000Y-78027885D01*
X139258475Y-78043124D01*
X139259865Y-78044329D01*
X139267548Y-78046000D01*
X140267967Y-78046000D01*
X140281498Y-78042027D01*
X140282727Y-78033478D01*
X140235236Y-77856239D01*
X140231490Y-77845947D01*
X140139414Y-77648489D01*
X140133931Y-77638993D01*
X140008972Y-77460533D01*
X140001916Y-77452125D01*
X139847875Y-77298084D01*
X139839467Y-77291028D01*
X139661007Y-77166069D01*
X139651511Y-77160586D01*
X139616359Y-77144195D01*
X139563074Y-77097278D01*
X139543613Y-77029001D01*
X139564155Y-76961041D01*
X139616359Y-76915805D01*
X139651511Y-76899414D01*
X139661007Y-76893931D01*
X139839467Y-76768972D01*
X139847875Y-76761916D01*
X140001916Y-76607875D01*
X140008972Y-76599467D01*
X140133931Y-76421007D01*
X140139414Y-76411511D01*
X140231490Y-76214053D01*
X140235236Y-76203761D01*
X140281394Y-76031497D01*
X140281058Y-76017401D01*
X140273116Y-76014000D01*
X139272115Y-76014000D01*
X139256876Y-76018475D01*
X139255671Y-76019865D01*
X139254000Y-76027548D01*
X139254000Y-78027885D01*
X138746000Y-78027885D01*
X138746000Y-75632000D01*
X138766002Y-75563879D01*
X138819658Y-75517386D01*
X138872000Y-75506000D01*
X140267967Y-75506000D01*
X140281498Y-75502027D01*
X140282727Y-75493478D01*
X140235236Y-75316239D01*
X140231490Y-75305947D01*
X140139414Y-75108489D01*
X140133931Y-75098993D01*
X140008972Y-74920533D01*
X140001916Y-74912125D01*
X139847875Y-74758084D01*
X139839467Y-74751028D01*
X139661007Y-74626069D01*
X139651511Y-74620586D01*
X139616951Y-74604471D01*
X139563666Y-74557554D01*
X139544205Y-74489277D01*
X139564747Y-74421317D01*
X139616951Y-74376081D01*
X139651762Y-74359849D01*
X139651767Y-74359846D01*
X139656749Y-74357523D01*
X139799075Y-74257865D01*
X139839789Y-74229357D01*
X139839792Y-74229355D01*
X139844300Y-74226198D01*
X140006198Y-74064300D01*
X140137523Y-73876749D01*
X140139846Y-73871767D01*
X140139849Y-73871762D01*
X140231961Y-73674225D01*
X140231961Y-73674224D01*
X140234284Y-73669243D01*
X140293543Y-73448087D01*
X140313498Y-73220000D01*
X140293543Y-72991913D01*
X140234284Y-72770757D01*
X140231961Y-72765775D01*
X140139849Y-72568238D01*
X140139846Y-72568233D01*
X140137523Y-72563251D01*
X140006198Y-72375700D01*
X139844300Y-72213802D01*
X139839792Y-72210645D01*
X139839789Y-72210643D01*
X139761611Y-72155902D01*
X139656749Y-72082477D01*
X139651767Y-72080154D01*
X139651762Y-72080151D01*
X139454225Y-71988039D01*
X139454224Y-71988039D01*
X139449243Y-71985716D01*
X139443935Y-71984294D01*
X139443933Y-71984293D01*
X139233402Y-71927881D01*
X139233400Y-71927881D01*
X139228087Y-71926457D01*
X139000000Y-71906502D01*
X138771913Y-71926457D01*
X138766600Y-71927881D01*
X138766598Y-71927881D01*
X138556067Y-71984293D01*
X138556065Y-71984294D01*
X138550757Y-71985716D01*
X138545776Y-71988039D01*
X138545775Y-71988039D01*
X138348238Y-72080151D01*
X138348233Y-72080154D01*
X138343251Y-72082477D01*
X138238389Y-72155902D01*
X138160211Y-72210643D01*
X138160208Y-72210645D01*
X138155700Y-72213802D01*
X137993802Y-72375700D01*
X137862477Y-72563251D01*
X137860154Y-72568233D01*
X137860151Y-72568238D01*
X137768039Y-72765775D01*
X137765716Y-72770757D01*
X137764294Y-72776065D01*
X137764293Y-72776067D01*
X137747707Y-72837967D01*
X137710755Y-72898590D01*
X137646894Y-72929611D01*
X137576400Y-72921183D01*
X137521653Y-72875980D01*
X137500000Y-72805356D01*
X137500000Y-70634000D01*
X137520002Y-70565879D01*
X137573658Y-70519386D01*
X137626000Y-70508000D01*
X161366000Y-70508000D01*
X161434121Y-70528002D01*
X161480614Y-70581658D01*
X161492000Y-70634000D01*
X161492000Y-101366000D01*
X161471998Y-101434121D01*
X161418342Y-101480614D01*
X161366000Y-101492000D01*
X96634000Y-101492000D01*
X96565879Y-101471998D01*
X96519386Y-101418342D01*
X96508000Y-101366000D01*
X96508000Y-96858835D01*
X96528002Y-96790714D01*
X96581658Y-96744221D01*
X96651932Y-96734117D01*
X96714313Y-96761748D01*
X96718602Y-96765296D01*
X96727384Y-96773288D01*
X97879595Y-97925499D01*
X97913621Y-97987811D01*
X97916500Y-98014594D01*
X97916500Y-98600400D01*
X97927474Y-98706166D01*
X97983450Y-98873946D01*
X98076522Y-99024348D01*
X98201697Y-99149305D01*
X98207927Y-99153145D01*
X98207928Y-99153146D01*
X98309033Y-99215468D01*
X98352262Y-99242115D01*
X98471789Y-99281760D01*
X98530149Y-99322190D01*
X98553119Y-99366201D01*
X98563982Y-99403593D01*
X98568015Y-99410412D01*
X98568017Y-99410417D01*
X98570489Y-99414596D01*
X98587950Y-99483412D01*
X98587346Y-99491909D01*
X98586496Y-99500000D01*
X98606458Y-99689928D01*
X98665473Y-99871556D01*
X98668776Y-99877278D01*
X98668777Y-99877279D01*
X98686080Y-99907249D01*
X98760960Y-100036944D01*
X98888747Y-100178866D01*
X99043248Y-100291118D01*
X99049276Y-100293802D01*
X99049278Y-100293803D01*
X99211681Y-100366109D01*
X99217712Y-100368794D01*
X99311113Y-100388647D01*
X99398056Y-100407128D01*
X99398061Y-100407128D01*
X99404513Y-100408500D01*
X99595487Y-100408500D01*
X99601939Y-100407128D01*
X99601944Y-100407128D01*
X99688887Y-100388647D01*
X99782288Y-100368794D01*
X99788319Y-100366109D01*
X99950722Y-100293803D01*
X99950724Y-100293802D01*
X99956752Y-100291118D01*
X100111253Y-100178866D01*
X100239040Y-100036944D01*
X100313920Y-99907249D01*
X100331223Y-99877279D01*
X100331224Y-99877278D01*
X100334527Y-99871556D01*
X100393542Y-99689928D01*
X100413504Y-99500000D01*
X100412814Y-99493435D01*
X100412814Y-99486830D01*
X100415243Y-99486830D01*
X100426029Y-99427837D01*
X100474528Y-99375988D01*
X100538569Y-99358500D01*
X102548134Y-99358500D01*
X102610316Y-99351745D01*
X102746705Y-99300615D01*
X102863261Y-99213261D01*
X102950615Y-99096705D01*
X103001745Y-98960316D01*
X103007037Y-98911598D01*
X103034278Y-98846037D01*
X103052662Y-98827565D01*
X103063084Y-98819065D01*
X103092310Y-98783737D01*
X103100299Y-98774958D01*
X104127123Y-97748134D01*
X106291500Y-97748134D01*
X106298255Y-97810316D01*
X106349385Y-97946705D01*
X106436739Y-98063261D01*
X106553295Y-98150615D01*
X106689684Y-98201745D01*
X106751866Y-98208500D01*
X108848134Y-98208500D01*
X108910316Y-98201745D01*
X109046705Y-98150615D01*
X109163261Y-98063261D01*
X109250615Y-97946705D01*
X109301745Y-97810316D01*
X109308500Y-97748134D01*
X109308500Y-93851866D01*
X109301745Y-93789684D01*
X109250615Y-93653295D01*
X109163261Y-93536739D01*
X109046705Y-93449385D01*
X108910316Y-93398255D01*
X108848134Y-93391500D01*
X106751866Y-93391500D01*
X106689684Y-93398255D01*
X106553295Y-93449385D01*
X106436739Y-93536739D01*
X106349385Y-93653295D01*
X106298255Y-93789684D01*
X106291500Y-93851866D01*
X106291500Y-97748134D01*
X104127123Y-97748134D01*
X105316879Y-96558377D01*
X105327022Y-96549275D01*
X105351718Y-96529419D01*
X105356525Y-96525554D01*
X105388792Y-96487100D01*
X105391972Y-96483453D01*
X105393615Y-96481641D01*
X105395809Y-96479447D01*
X105423142Y-96446173D01*
X105423848Y-96445322D01*
X105429245Y-96438891D01*
X105483654Y-96374048D01*
X105486222Y-96369378D01*
X105489603Y-96365261D01*
X105533515Y-96283364D01*
X105534124Y-96282242D01*
X105575966Y-96206133D01*
X105575968Y-96206128D01*
X105578933Y-96200735D01*
X105580544Y-96195657D01*
X105583063Y-96190959D01*
X105610253Y-96102024D01*
X105610636Y-96100794D01*
X105614192Y-96089586D01*
X105638735Y-96012216D01*
X105639328Y-96006925D01*
X105640888Y-96001824D01*
X105650295Y-95909211D01*
X105650415Y-95908091D01*
X105656000Y-95858295D01*
X105656000Y-95854766D01*
X105656055Y-95853783D01*
X105656504Y-95848078D01*
X105656846Y-95844717D01*
X105658619Y-95827262D01*
X105660252Y-95811186D01*
X105660252Y-95811183D01*
X105660874Y-95805059D01*
X105656559Y-95759410D01*
X105656000Y-95747553D01*
X105656000Y-89479501D01*
X105675262Y-89412545D01*
X105728636Y-89327460D01*
X105773364Y-89256156D01*
X105857156Y-89047717D01*
X105902713Y-88827733D01*
X105906000Y-88770725D01*
X105906000Y-87625501D01*
X105905535Y-87620283D01*
X105895386Y-87506577D01*
X105891117Y-87458738D01*
X105888903Y-87450643D01*
X105853840Y-87322477D01*
X105831837Y-87242049D01*
X105827040Y-87231990D01*
X105766036Y-87104095D01*
X105735122Y-87039282D01*
X105604029Y-86856846D01*
X105536947Y-86791839D01*
X105446729Y-86704411D01*
X105446726Y-86704409D01*
X105442701Y-86700508D01*
X105256238Y-86575210D01*
X105050533Y-86484912D01*
X105045082Y-86483603D01*
X105045078Y-86483602D01*
X104837546Y-86433778D01*
X104837545Y-86433778D01*
X104832089Y-86432468D01*
X104748025Y-86427621D01*
X104613417Y-86419860D01*
X104613414Y-86419860D01*
X104607810Y-86419537D01*
X104384785Y-86446525D01*
X104170065Y-86512582D01*
X104165085Y-86515152D01*
X104165081Y-86515154D01*
X104037009Y-86581257D01*
X103970436Y-86615618D01*
X103792208Y-86752377D01*
X103641015Y-86918536D01*
X103638037Y-86923283D01*
X103638035Y-86923286D01*
X103634227Y-86929357D01*
X103521636Y-87108844D01*
X103494539Y-87176250D01*
X103450575Y-87231990D01*
X103383450Y-87255116D01*
X103314479Y-87238279D01*
X103263908Y-87183495D01*
X103195122Y-87039282D01*
X103064029Y-86856846D01*
X102996947Y-86791839D01*
X102906729Y-86704411D01*
X102906726Y-86704409D01*
X102902701Y-86700508D01*
X102716238Y-86575210D01*
X102510533Y-86484912D01*
X102505082Y-86483603D01*
X102505078Y-86483602D01*
X102297546Y-86433778D01*
X102297545Y-86433778D01*
X102292089Y-86432468D01*
X102208025Y-86427621D01*
X102073417Y-86419860D01*
X102073414Y-86419860D01*
X102067810Y-86419537D01*
X101844785Y-86446525D01*
X101630065Y-86512582D01*
X101625085Y-86515152D01*
X101625081Y-86515154D01*
X101497009Y-86581257D01*
X101430436Y-86615618D01*
X101252208Y-86752377D01*
X101101015Y-86918536D01*
X101098037Y-86923283D01*
X101098035Y-86923286D01*
X101058738Y-86985932D01*
X101005594Y-87033009D01*
X100935435Y-87043882D01*
X100870535Y-87015098D01*
X100831500Y-86955796D01*
X100826000Y-86918976D01*
X100826000Y-86884366D01*
X100819245Y-86822184D01*
X100768115Y-86685795D01*
X100680761Y-86569239D01*
X100564205Y-86481885D01*
X100427816Y-86430755D01*
X100365634Y-86424000D01*
X98769366Y-86424000D01*
X98707184Y-86430755D01*
X98570795Y-86481885D01*
X98454239Y-86569239D01*
X98366885Y-86685795D01*
X98315755Y-86822184D01*
X98309000Y-86884366D01*
X98309000Y-87962575D01*
X98288998Y-88030696D01*
X98272095Y-88051670D01*
X97409541Y-88914225D01*
X96723095Y-89600671D01*
X96660783Y-89634696D01*
X96589968Y-89629632D01*
X96533132Y-89587085D01*
X96508321Y-89520565D01*
X96508000Y-89511576D01*
X96508000Y-80227885D01*
X108767000Y-80227885D01*
X108771475Y-80243124D01*
X108772865Y-80244329D01*
X108780548Y-80246000D01*
X109727885Y-80246000D01*
X109743124Y-80241525D01*
X109744329Y-80240135D01*
X109746000Y-80232452D01*
X109746000Y-80227885D01*
X110254000Y-80227885D01*
X110258475Y-80243124D01*
X110259865Y-80244329D01*
X110267548Y-80246000D01*
X111727885Y-80246000D01*
X111743124Y-80241525D01*
X111744329Y-80240135D01*
X111746000Y-80232452D01*
X111746000Y-80227885D01*
X112254000Y-80227885D01*
X112258475Y-80243124D01*
X112259865Y-80244329D01*
X112267548Y-80246000D01*
X113104255Y-80246000D01*
X113139029Y-80241000D01*
X116159884Y-80241000D01*
X116175123Y-80236525D01*
X116176328Y-80235135D01*
X116177999Y-80227452D01*
X116177999Y-80015950D01*
X116198001Y-79947829D01*
X116251657Y-79901336D01*
X116321931Y-79891232D01*
X116330197Y-79892704D01*
X116398049Y-79907127D01*
X116398058Y-79907128D01*
X116404513Y-79908500D01*
X116595487Y-79908500D01*
X116601939Y-79907128D01*
X116601944Y-79907128D01*
X116698626Y-79886577D01*
X116782288Y-79868794D01*
X116805409Y-79858500D01*
X116950722Y-79793803D01*
X116950724Y-79793802D01*
X116956752Y-79791118D01*
X117002111Y-79758163D01*
X117045648Y-79726531D01*
X117111253Y-79678866D01*
X117142862Y-79643761D01*
X117234621Y-79541852D01*
X117234622Y-79541851D01*
X117239040Y-79536944D01*
X117334527Y-79371556D01*
X117393542Y-79189928D01*
X117396404Y-79162703D01*
X117412814Y-79006565D01*
X117413504Y-79000000D01*
X117401963Y-78890195D01*
X117394232Y-78816635D01*
X117394232Y-78816633D01*
X117393542Y-78810072D01*
X117334527Y-78628444D01*
X117313990Y-78592872D01*
X117276586Y-78528087D01*
X117239040Y-78463056D01*
X117228315Y-78451144D01*
X117115675Y-78326045D01*
X117115674Y-78326044D01*
X117111253Y-78321134D01*
X117003502Y-78242848D01*
X116962094Y-78212763D01*
X116962093Y-78212762D01*
X116956752Y-78208882D01*
X116950724Y-78206198D01*
X116950722Y-78206197D01*
X116788319Y-78133891D01*
X116788318Y-78133891D01*
X116782288Y-78131206D01*
X116688888Y-78111353D01*
X116601944Y-78092872D01*
X116601939Y-78092872D01*
X116595487Y-78091500D01*
X116404513Y-78091500D01*
X116398061Y-78092872D01*
X116398056Y-78092872D01*
X116311112Y-78111353D01*
X116217712Y-78131206D01*
X116211682Y-78133891D01*
X116211681Y-78133891D01*
X116049278Y-78206197D01*
X116049276Y-78206198D01*
X116043248Y-78208882D01*
X116037907Y-78212762D01*
X116037906Y-78212763D01*
X115950141Y-78276528D01*
X115883273Y-78300387D01*
X115831851Y-78292574D01*
X115787718Y-78276029D01*
X115787711Y-78276027D01*
X115780316Y-78273255D01*
X115718134Y-78266500D01*
X113621866Y-78266500D01*
X113559684Y-78273255D01*
X113423295Y-78324385D01*
X113306739Y-78411739D01*
X113219385Y-78528295D01*
X113168255Y-78664684D01*
X113161500Y-78726866D01*
X113161500Y-79572867D01*
X113141498Y-79640988D01*
X113087842Y-79687481D01*
X113017568Y-79697585D01*
X112952988Y-79668091D01*
X112946482Y-79662040D01*
X112928171Y-79643761D01*
X112916760Y-79634749D01*
X112778757Y-79549684D01*
X112765576Y-79543537D01*
X112611290Y-79492362D01*
X112597914Y-79489495D01*
X112503562Y-79479828D01*
X112497145Y-79479500D01*
X112272115Y-79479500D01*
X112256876Y-79483975D01*
X112255671Y-79485365D01*
X112254000Y-79493048D01*
X112254000Y-80227885D01*
X111746000Y-80227885D01*
X111746000Y-79497616D01*
X111741525Y-79482377D01*
X111740135Y-79481172D01*
X111732452Y-79479501D01*
X111502905Y-79479501D01*
X111496386Y-79479838D01*
X111400794Y-79489757D01*
X111387400Y-79492649D01*
X111233216Y-79544088D01*
X111220038Y-79550261D01*
X111082193Y-79635563D01*
X111081668Y-79635979D01*
X111081242Y-79636151D01*
X111075965Y-79639417D01*
X111075406Y-79638514D01*
X111015858Y-79662616D01*
X110946094Y-79649445D01*
X110937288Y-79644493D01*
X110803757Y-79562184D01*
X110790576Y-79556037D01*
X110636290Y-79504862D01*
X110622914Y-79501995D01*
X110528562Y-79492328D01*
X110522145Y-79492000D01*
X110272115Y-79492000D01*
X110256876Y-79496475D01*
X110255671Y-79497865D01*
X110254000Y-79505548D01*
X110254000Y-80227885D01*
X109746000Y-80227885D01*
X109746000Y-79510116D01*
X109741525Y-79494877D01*
X109740135Y-79493672D01*
X109732452Y-79492001D01*
X109477905Y-79492001D01*
X109471386Y-79492338D01*
X109375794Y-79502257D01*
X109362400Y-79505149D01*
X109208216Y-79556588D01*
X109195038Y-79562761D01*
X109057193Y-79648063D01*
X109045792Y-79657099D01*
X108931261Y-79771829D01*
X108922249Y-79783240D01*
X108837184Y-79921243D01*
X108831037Y-79934424D01*
X108779862Y-80088710D01*
X108776995Y-80102086D01*
X108767328Y-80196438D01*
X108767000Y-80202855D01*
X108767000Y-80227885D01*
X96508000Y-80227885D01*
X96508000Y-79050400D01*
X103951500Y-79050400D01*
X103951837Y-79053646D01*
X103951837Y-79053650D01*
X103961614Y-79147875D01*
X103962474Y-79156165D01*
X103964655Y-79162701D01*
X103964655Y-79162703D01*
X104008728Y-79294805D01*
X104018450Y-79323945D01*
X104111522Y-79474348D01*
X104116704Y-79479521D01*
X104142089Y-79504862D01*
X104236697Y-79599305D01*
X104242927Y-79603145D01*
X104242928Y-79603146D01*
X104380090Y-79687694D01*
X104387262Y-79692115D01*
X104467005Y-79718564D01*
X104548611Y-79745632D01*
X104548613Y-79745632D01*
X104555139Y-79747797D01*
X104561975Y-79748497D01*
X104561978Y-79748498D01*
X104605031Y-79752909D01*
X104659600Y-79758500D01*
X106280400Y-79758500D01*
X106283646Y-79758163D01*
X106283650Y-79758163D01*
X106379307Y-79748238D01*
X106379311Y-79748237D01*
X106386165Y-79747526D01*
X106392701Y-79745345D01*
X106392703Y-79745345D01*
X106539989Y-79696206D01*
X106553945Y-79691550D01*
X106704348Y-79598478D01*
X106829305Y-79473303D01*
X106840091Y-79455805D01*
X106918275Y-79328968D01*
X106918276Y-79328966D01*
X106922115Y-79322738D01*
X106977797Y-79154861D01*
X106988500Y-79050400D01*
X106988500Y-77949600D01*
X106981946Y-77886431D01*
X106978238Y-77850693D01*
X106978237Y-77850689D01*
X106977526Y-77843835D01*
X106948954Y-77758193D01*
X106923868Y-77683003D01*
X106921550Y-77676055D01*
X106828478Y-77525652D01*
X106703303Y-77400695D01*
X106656002Y-77371538D01*
X106558968Y-77311725D01*
X106558966Y-77311724D01*
X106552738Y-77307885D01*
X106472995Y-77281436D01*
X106391389Y-77254368D01*
X106391387Y-77254368D01*
X106384861Y-77252203D01*
X106378025Y-77251503D01*
X106378022Y-77251502D01*
X106334969Y-77247091D01*
X106280400Y-77241500D01*
X104659600Y-77241500D01*
X104656354Y-77241837D01*
X104656350Y-77241837D01*
X104560693Y-77251762D01*
X104560689Y-77251763D01*
X104553835Y-77252474D01*
X104547299Y-77254655D01*
X104547297Y-77254655D01*
X104451469Y-77286626D01*
X104386055Y-77308450D01*
X104235652Y-77401522D01*
X104110695Y-77526697D01*
X104106855Y-77532927D01*
X104106854Y-77532928D01*
X104041629Y-77638743D01*
X104017885Y-77677262D01*
X103962203Y-77845139D01*
X103961503Y-77851975D01*
X103961502Y-77851978D01*
X103958781Y-77878539D01*
X103951500Y-77949600D01*
X103951500Y-79050400D01*
X96508000Y-79050400D01*
X96508000Y-76929733D01*
X99137822Y-76929733D01*
X99137975Y-76934121D01*
X99137975Y-76934127D01*
X99146075Y-77166069D01*
X99147625Y-77210458D01*
X99148387Y-77214781D01*
X99148388Y-77214788D01*
X99175284Y-77367320D01*
X99196402Y-77487087D01*
X99283203Y-77754235D01*
X99406340Y-78006702D01*
X99408795Y-78010341D01*
X99408798Y-78010347D01*
X99463537Y-78091500D01*
X99563415Y-78239576D01*
X99566360Y-78242847D01*
X99566361Y-78242848D01*
X99622751Y-78305475D01*
X99751371Y-78448322D01*
X99966550Y-78628879D01*
X100204764Y-78777731D01*
X100461375Y-78891982D01*
X100465603Y-78893194D01*
X100465602Y-78893194D01*
X100702096Y-78961007D01*
X100731390Y-78969407D01*
X100735740Y-78970018D01*
X100735743Y-78970019D01*
X100838690Y-78984487D01*
X101009552Y-79008500D01*
X101220146Y-79008500D01*
X101222332Y-79008347D01*
X101222336Y-79008347D01*
X101425827Y-78994118D01*
X101425832Y-78994117D01*
X101430212Y-78993811D01*
X101704970Y-78935409D01*
X101709099Y-78933906D01*
X101709103Y-78933905D01*
X101964781Y-78840846D01*
X101964785Y-78840844D01*
X101968926Y-78839337D01*
X102216942Y-78707464D01*
X102323791Y-78629834D01*
X102440629Y-78544947D01*
X102440632Y-78544944D01*
X102444192Y-78542358D01*
X102453467Y-78533402D01*
X102643087Y-78350287D01*
X102646252Y-78347231D01*
X102812931Y-78133891D01*
X102816481Y-78129347D01*
X102816482Y-78129346D01*
X102819188Y-78125882D01*
X102821384Y-78122078D01*
X102821389Y-78122071D01*
X102957435Y-77886431D01*
X102959636Y-77882619D01*
X103064862Y-77622176D01*
X103074531Y-77583395D01*
X103131753Y-77353893D01*
X103131754Y-77353888D01*
X103132817Y-77349624D01*
X103134156Y-77336892D01*
X103161719Y-77074636D01*
X103161719Y-77074633D01*
X103162178Y-77070267D01*
X103162025Y-77065873D01*
X103152529Y-76793939D01*
X103152528Y-76793933D01*
X103152375Y-76789542D01*
X103146902Y-76758500D01*
X103104360Y-76517236D01*
X103103598Y-76512913D01*
X103016797Y-76245765D01*
X102893660Y-75993298D01*
X102891205Y-75989659D01*
X102891202Y-75989653D01*
X102810935Y-75870653D01*
X102736585Y-75760424D01*
X102548629Y-75551678D01*
X102534342Y-75539690D01*
X103947037Y-75539690D01*
X103974025Y-75762715D01*
X104040082Y-75977435D01*
X104042652Y-75982415D01*
X104042654Y-75982419D01*
X104107852Y-76108738D01*
X104143118Y-76177064D01*
X104279877Y-76355292D01*
X104446036Y-76506485D01*
X104450783Y-76509463D01*
X104450786Y-76509465D01*
X104601968Y-76604300D01*
X104636344Y-76625864D01*
X104844783Y-76709656D01*
X105064767Y-76755213D01*
X105069378Y-76755479D01*
X105069379Y-76755479D01*
X105119952Y-76758395D01*
X105119956Y-76758395D01*
X105121775Y-76758500D01*
X105786999Y-76758500D01*
X105789786Y-76758251D01*
X105789792Y-76758251D01*
X105859929Y-76751991D01*
X105953762Y-76743617D01*
X105959176Y-76742136D01*
X105959181Y-76742135D01*
X106086912Y-76707191D01*
X106170451Y-76684337D01*
X106175509Y-76681925D01*
X106175513Y-76681923D01*
X106293042Y-76625864D01*
X106373218Y-76587622D01*
X106555654Y-76456529D01*
X106711992Y-76295201D01*
X106837290Y-76108738D01*
X106927588Y-75903033D01*
X106961928Y-75760000D01*
X106978722Y-75690046D01*
X106978722Y-75690045D01*
X106980032Y-75684589D01*
X106992963Y-75460310D01*
X106965975Y-75237285D01*
X106899918Y-75022565D01*
X106891308Y-75005882D01*
X106799454Y-74827919D01*
X106799454Y-74827918D01*
X106796882Y-74822936D01*
X106660123Y-74644708D01*
X106493964Y-74493515D01*
X106489217Y-74490537D01*
X106489214Y-74490535D01*
X106308405Y-74377115D01*
X106303656Y-74374136D01*
X106095217Y-74290344D01*
X105875233Y-74244787D01*
X105870622Y-74244521D01*
X105870621Y-74244521D01*
X105820048Y-74241605D01*
X105820044Y-74241605D01*
X105818225Y-74241500D01*
X105153001Y-74241500D01*
X105150214Y-74241749D01*
X105150208Y-74241749D01*
X105080071Y-74248009D01*
X104986238Y-74256383D01*
X104980824Y-74257864D01*
X104980819Y-74257865D01*
X104866262Y-74289205D01*
X104769549Y-74315663D01*
X104764491Y-74318075D01*
X104764487Y-74318077D01*
X104681788Y-74357523D01*
X104566782Y-74412378D01*
X104384346Y-74543471D01*
X104228008Y-74704799D01*
X104102710Y-74891262D01*
X104012412Y-75096967D01*
X104011103Y-75102418D01*
X104011102Y-75102422D01*
X103981771Y-75224596D01*
X103959968Y-75315411D01*
X103956756Y-75371121D01*
X103951768Y-75457642D01*
X103947037Y-75539690D01*
X102534342Y-75539690D01*
X102507762Y-75517386D01*
X102336820Y-75373949D01*
X102333450Y-75371121D01*
X102095236Y-75222269D01*
X101838625Y-75108018D01*
X101568610Y-75030593D01*
X101564260Y-75029982D01*
X101564257Y-75029981D01*
X101461310Y-75015513D01*
X101290448Y-74991500D01*
X101079854Y-74991500D01*
X101077668Y-74991653D01*
X101077664Y-74991653D01*
X100874173Y-75005882D01*
X100874168Y-75005883D01*
X100869788Y-75006189D01*
X100595030Y-75064591D01*
X100590901Y-75066094D01*
X100590897Y-75066095D01*
X100335219Y-75159154D01*
X100335215Y-75159156D01*
X100331074Y-75160663D01*
X100083058Y-75292536D01*
X100079499Y-75295122D01*
X100079497Y-75295123D01*
X99974895Y-75371121D01*
X99855808Y-75457642D01*
X99653748Y-75652769D01*
X99480812Y-75874118D01*
X99478616Y-75877922D01*
X99478611Y-75877929D01*
X99400051Y-76014000D01*
X99340364Y-76117381D01*
X99235138Y-76377824D01*
X99234073Y-76382097D01*
X99234072Y-76382099D01*
X99172773Y-76627957D01*
X99167183Y-76650376D01*
X99166724Y-76654744D01*
X99166723Y-76654749D01*
X99140963Y-76899849D01*
X99137822Y-76929733D01*
X96508000Y-76929733D01*
X96508000Y-70634000D01*
X96528002Y-70565879D01*
X96581658Y-70519386D01*
X96634000Y-70508000D01*
X108874000Y-70508000D01*
X108942121Y-70528002D01*
G37*
%TD.AperFunction*%
%TA.AperFunction,Conductor*%
G36*
X103586090Y-94300704D02*
G01*
X103629976Y-94356513D01*
X103639000Y-94403339D01*
X103639000Y-95331598D01*
X103618998Y-95399719D01*
X103602095Y-95420693D01*
X103005693Y-96017095D01*
X102943381Y-96051121D01*
X102916598Y-96054000D01*
X101372000Y-96054000D01*
X101303879Y-96033998D01*
X101257386Y-95980342D01*
X101246000Y-95928000D01*
X101246000Y-95672000D01*
X101266002Y-95603879D01*
X101319658Y-95557386D01*
X101372000Y-95546000D01*
X102989884Y-95546000D01*
X103005123Y-95541525D01*
X103006328Y-95540135D01*
X103007999Y-95532452D01*
X103007999Y-95005331D01*
X103007629Y-94998510D01*
X103002105Y-94947648D01*
X102998479Y-94932396D01*
X102953324Y-94811946D01*
X102944786Y-94796352D01*
X102892047Y-94725982D01*
X102867199Y-94659476D01*
X102882252Y-94590093D01*
X102892047Y-94574852D01*
X102945229Y-94503891D01*
X102950615Y-94496705D01*
X102953767Y-94488296D01*
X102958077Y-94480425D01*
X102959741Y-94481336D01*
X102995663Y-94433510D01*
X103062224Y-94408807D01*
X103071009Y-94408500D01*
X103095487Y-94408500D01*
X103101939Y-94407128D01*
X103101944Y-94407128D01*
X103188887Y-94388647D01*
X103282288Y-94368794D01*
X103289988Y-94365366D01*
X103456752Y-94291118D01*
X103457340Y-94292438D01*
X103518999Y-94277482D01*
X103586090Y-94300704D01*
G37*
%TD.AperFunction*%
%TD*%
M02*
