%TF.GenerationSoftware,KiCad,Pcbnew,(6.0.0)*%
%TF.CreationDate,2022-01-25T19:48:24+01:00*%
%TF.ProjectId,ESP32_Blind,45535033-325f-4426-9c69-6e642e6b6963,rev?*%
%TF.SameCoordinates,Original*%
%TF.FileFunction,Paste,Top*%
%TF.FilePolarity,Positive*%
%FSLAX46Y46*%
G04 Gerber Fmt 4.6, Leading zero omitted, Abs format (unit mm)*
G04 Created by KiCad (PCBNEW (6.0.0)) date 2022-01-25 19:48:24*
%MOMM*%
%LPD*%
G01*
G04 APERTURE LIST*
G04 Aperture macros list*
%AMRoundRect*
0 Rectangle with rounded corners*
0 $1 Rounding radius*
0 $2 $3 $4 $5 $6 $7 $8 $9 X,Y pos of 4 corners*
0 Add a 4 corners polygon primitive as box body*
4,1,4,$2,$3,$4,$5,$6,$7,$8,$9,$2,$3,0*
0 Add four circle primitives for the rounded corners*
1,1,$1+$1,$2,$3*
1,1,$1+$1,$4,$5*
1,1,$1+$1,$6,$7*
1,1,$1+$1,$8,$9*
0 Add four rect primitives between the rounded corners*
20,1,$1+$1,$2,$3,$4,$5,0*
20,1,$1+$1,$4,$5,$6,$7,0*
20,1,$1+$1,$6,$7,$8,$9,0*
20,1,$1+$1,$8,$9,$2,$3,0*%
G04 Aperture macros list end*
%ADD10R,0.740000X2.400000*%
%ADD11R,2.000000X1.500000*%
%ADD12R,2.000000X3.800000*%
%ADD13RoundRect,0.250000X-0.450000X0.262500X-0.450000X-0.262500X0.450000X-0.262500X0.450000X0.262500X0*%
%ADD14RoundRect,0.250000X0.450000X-0.262500X0.450000X0.262500X-0.450000X0.262500X-0.450000X-0.262500X0*%
%ADD15RoundRect,0.250000X-0.475000X0.250000X-0.475000X-0.250000X0.475000X-0.250000X0.475000X0.250000X0*%
%ADD16RoundRect,0.250000X0.475000X-0.250000X0.475000X0.250000X-0.475000X0.250000X-0.475000X-0.250000X0*%
%ADD17R,2.000000X0.900000*%
%ADD18R,0.900000X2.000000*%
%ADD19R,5.000000X5.000000*%
G04 APERTURE END LIST*
D10*
%TO.C,J2*%
X139960000Y-98500000D03*
X139960000Y-94600000D03*
X141230000Y-98500000D03*
X141230000Y-94600000D03*
X142500000Y-98500000D03*
X142500000Y-94600000D03*
%TD*%
D11*
%TO.C,U2*%
X101500000Y-93500000D03*
X101500000Y-95800000D03*
X101500000Y-98100000D03*
D12*
X107800000Y-95800000D03*
%TD*%
D13*
%TO.C,R1*%
X112000000Y-80500000D03*
X112000000Y-82325000D03*
%TD*%
D14*
%TO.C,R2*%
X145000000Y-96500000D03*
X145000000Y-94675000D03*
%TD*%
D15*
%TO.C,C4*%
X110000000Y-80500000D03*
X110000000Y-82400000D03*
%TD*%
D16*
%TO.C,C3*%
X99150000Y-94750000D03*
X99150000Y-92850000D03*
%TD*%
D17*
%TO.C,U3*%
X114670000Y-79225000D03*
X114670000Y-80495000D03*
X114670000Y-81765000D03*
X114670000Y-83035000D03*
X114670000Y-84305000D03*
X114670000Y-85575000D03*
X114670000Y-86845000D03*
X114670000Y-88115000D03*
X114670000Y-89385000D03*
X114670000Y-90655000D03*
X114670000Y-91925000D03*
X114670000Y-93195000D03*
X114670000Y-94465000D03*
X114670000Y-95735000D03*
D18*
X117455000Y-96735000D03*
X118725000Y-96735000D03*
X119995000Y-96735000D03*
X121265000Y-96735000D03*
X122535000Y-96735000D03*
X123805000Y-96735000D03*
X125075000Y-96735000D03*
X126345000Y-96735000D03*
X127615000Y-96735000D03*
X128885000Y-96735000D03*
D17*
X131670000Y-95735000D03*
X131670000Y-94465000D03*
X131670000Y-93195000D03*
X131670000Y-91925000D03*
X131670000Y-90655000D03*
X131670000Y-89385000D03*
X131670000Y-88115000D03*
X131670000Y-86845000D03*
X131670000Y-85575000D03*
X131670000Y-84305000D03*
X131670000Y-83035000D03*
X131670000Y-81765000D03*
X131670000Y-80495000D03*
X131670000Y-79225000D03*
D19*
X122170000Y-86725000D03*
%TD*%
D15*
%TO.C,C2*%
X99150000Y-96400000D03*
X99150000Y-98300000D03*
%TD*%
%TO.C,C1*%
X97150000Y-92900000D03*
X97150000Y-94800000D03*
%TD*%
M02*
