M48
; DRILL file {KiCad (6.0.0)} date Tue Jan 25 19:48:27 2022
; FORMAT={-:-/ absolute / inch / decimal}
; #@! TF.CreationDate,2022-01-25T19:48:27+01:00
; #@! TF.GenerationSoftware,Kicad,Pcbnew,(6.0.0)
; #@! TF.FileFunction,Plated,1,2,PTH
FMAT,2
INCH
; #@! TA.AperFunction,Plated,PTH,ViaDrill
T1C0.0157
; #@! TA.AperFunction,Plated,PTH,ComponentDrill
T2C0.0315
; #@! TA.AperFunction,Plated,PTH,ComponentDrill
T3C0.0394
; #@! TA.AperFunction,Plated,PTH,ComponentDrill
T4C0.0402
; #@! TA.AperFunction,Plated,PTH,ComponentDrill
T5C0.0469
%
G90
G05
T1
X3.9173Y-3.9173
X4.0551Y-3.6811
X4.0699Y-3.755
X4.1732Y-3.6614
X4.3307Y-3.2874
X4.5866Y-3.1102
X4.5866Y-3.1693
X4.6386Y-3.7538
X4.8425Y-3.5433
X5.0923Y-3.6932
X5.0984Y-3.3268
X5.2559Y-3.1299
X5.2559Y-3.3268
X5.2756Y-3.9065
X5.4331Y-3.7707
X5.5906Y-3.5984
X5.6457Y-3.7244
T2
X5.4724Y-2.8827
X5.4724Y-2.9827
X5.4724Y-3.0827
X5.4724Y-3.1827
X5.4724Y-3.2827
X5.4724Y-3.3827
X5.4724Y-3.4827
X5.4724Y-3.5827
X5.9724Y-2.8827
X5.9724Y-2.9827
X5.9724Y-3.0827
X5.9724Y-3.1827
X5.9724Y-3.2827
X5.9724Y-3.3827
X5.9724Y-3.4827
X5.9724Y-3.5827
T3
X3.92Y-3.4718
X4.02Y-3.4718
X4.12Y-3.4718
T4
X4.1524Y-2.9724
X4.1524Y-3.0906
T5
X6.2402Y-3.1087
X6.2402Y-3.2087
X6.2402Y-3.3087
X6.2402Y-3.4087
T0
M30
