%TF.GenerationSoftware,KiCad,Pcbnew,(6.0.0)*%
%TF.CreationDate,2022-01-25T19:48:24+01:00*%
%TF.ProjectId,ESP32_Blind,45535033-325f-4426-9c69-6e642e6b6963,rev?*%
%TF.SameCoordinates,Original*%
%TF.FileFunction,Legend,Top*%
%TF.FilePolarity,Positive*%
%FSLAX46Y46*%
G04 Gerber Fmt 4.6, Leading zero omitted, Abs format (unit mm)*
G04 Created by KiCad (PCBNEW (6.0.0)) date 2022-01-25 19:48:24*
%MOMM*%
%LPD*%
G01*
G04 APERTURE LIST*
%ADD10C,0.150000*%
%ADD11C,0.120000*%
G04 APERTURE END LIST*
D10*
X150928571Y-98500000D02*
X150833333Y-98452380D01*
X150690476Y-98452380D01*
X150547619Y-98500000D01*
X150452380Y-98595238D01*
X150404761Y-98690476D01*
X150357142Y-98880952D01*
X150357142Y-99023809D01*
X150404761Y-99214285D01*
X150452380Y-99309523D01*
X150547619Y-99404761D01*
X150690476Y-99452380D01*
X150785714Y-99452380D01*
X150928571Y-99404761D01*
X150976190Y-99357142D01*
X150976190Y-99023809D01*
X150785714Y-99023809D01*
X151785714Y-99404761D02*
X151690476Y-99452380D01*
X151500000Y-99452380D01*
X151404761Y-99404761D01*
X151357142Y-99309523D01*
X151357142Y-98928571D01*
X151404761Y-98833333D01*
X151500000Y-98785714D01*
X151690476Y-98785714D01*
X151785714Y-98833333D01*
X151833333Y-98928571D01*
X151833333Y-99023809D01*
X151357142Y-99119047D01*
X152261904Y-99452380D02*
X152261904Y-98785714D01*
X152261904Y-98976190D02*
X152309523Y-98880952D01*
X152357142Y-98833333D01*
X152452380Y-98785714D01*
X152547619Y-98785714D01*
X152738095Y-98785714D02*
X153119047Y-98785714D01*
X152880952Y-98452380D02*
X152880952Y-99309523D01*
X152928571Y-99404761D01*
X153023809Y-99452380D01*
X153119047Y-99452380D01*
X154690476Y-99452380D02*
X154214285Y-99452380D01*
X154214285Y-98452380D01*
X155452380Y-99452380D02*
X155452380Y-98928571D01*
X155404761Y-98833333D01*
X155309523Y-98785714D01*
X155119047Y-98785714D01*
X155023809Y-98833333D01*
X155452380Y-99404761D02*
X155357142Y-99452380D01*
X155119047Y-99452380D01*
X155023809Y-99404761D01*
X154976190Y-99309523D01*
X154976190Y-99214285D01*
X155023809Y-99119047D01*
X155119047Y-99071428D01*
X155357142Y-99071428D01*
X155452380Y-99023809D01*
X156357142Y-98785714D02*
X156357142Y-99452380D01*
X155928571Y-98785714D02*
X155928571Y-99309523D01*
X155976190Y-99404761D01*
X156071428Y-99452380D01*
X156214285Y-99452380D01*
X156309523Y-99404761D01*
X156357142Y-99357142D01*
X156833333Y-99452380D02*
X156833333Y-98785714D01*
X156833333Y-98976190D02*
X156880952Y-98880952D01*
X156928571Y-98833333D01*
X157023809Y-98785714D01*
X157119047Y-98785714D01*
X157452380Y-99452380D02*
X157452380Y-98785714D01*
X157452380Y-98452380D02*
X157404761Y-98500000D01*
X157452380Y-98547619D01*
X157500000Y-98500000D01*
X157452380Y-98452380D01*
X157452380Y-98547619D01*
X157785714Y-98785714D02*
X158166666Y-98785714D01*
X157928571Y-98452380D02*
X157928571Y-99309523D01*
X157976190Y-99404761D01*
X158071428Y-99452380D01*
X158166666Y-99452380D01*
X158452380Y-99404761D02*
X158547619Y-99452380D01*
X158738095Y-99452380D01*
X158833333Y-99404761D01*
X158880952Y-99309523D01*
X158880952Y-99261904D01*
X158833333Y-99166666D01*
X158738095Y-99119047D01*
X158595238Y-99119047D01*
X158500000Y-99071428D01*
X158452380Y-98976190D01*
X158452380Y-98928571D01*
X158500000Y-98833333D01*
X158595238Y-98785714D01*
X158738095Y-98785714D01*
X158833333Y-98833333D01*
X159690476Y-99404761D02*
X159595238Y-99452380D01*
X159404761Y-99452380D01*
X159309523Y-99404761D01*
X159261904Y-99309523D01*
X159261904Y-98928571D01*
X159309523Y-98833333D01*
X159404761Y-98785714D01*
X159595238Y-98785714D01*
X159690476Y-98833333D01*
X159738095Y-98928571D01*
X159738095Y-99023809D01*
X159261904Y-99119047D01*
X160166666Y-98785714D02*
X160166666Y-99452380D01*
X160166666Y-98880952D02*
X160214285Y-98833333D01*
X160309523Y-98785714D01*
X160452380Y-98785714D01*
X160547619Y-98833333D01*
X160595238Y-98928571D01*
X160595238Y-99452380D01*
%TO.C,J2*%
X137717380Y-96883333D02*
X138431666Y-96883333D01*
X138574523Y-96930952D01*
X138669761Y-97026190D01*
X138717380Y-97169047D01*
X138717380Y-97264285D01*
X137812619Y-96454761D02*
X137765000Y-96407142D01*
X137717380Y-96311904D01*
X137717380Y-96073809D01*
X137765000Y-95978571D01*
X137812619Y-95930952D01*
X137907857Y-95883333D01*
X138003095Y-95883333D01*
X138145952Y-95930952D01*
X138717380Y-96502380D01*
X138717380Y-95883333D01*
%TO.C,U2*%
X103888095Y-90752380D02*
X103888095Y-91561904D01*
X103935714Y-91657142D01*
X103983333Y-91704761D01*
X104078571Y-91752380D01*
X104269047Y-91752380D01*
X104364285Y-91704761D01*
X104411904Y-91657142D01*
X104459523Y-91561904D01*
X104459523Y-90752380D01*
X104888095Y-90847619D02*
X104935714Y-90800000D01*
X105030952Y-90752380D01*
X105269047Y-90752380D01*
X105364285Y-90800000D01*
X105411904Y-90847619D01*
X105459523Y-90942857D01*
X105459523Y-91038095D01*
X105411904Y-91180952D01*
X104840476Y-91752380D01*
X105459523Y-91752380D01*
%TO.C,J1*%
X94802380Y-77333333D02*
X95516666Y-77333333D01*
X95659523Y-77380952D01*
X95754761Y-77476190D01*
X95802380Y-77619047D01*
X95802380Y-77714285D01*
X95802380Y-76333333D02*
X95802380Y-76904761D01*
X95802380Y-76619047D02*
X94802380Y-76619047D01*
X94945238Y-76714285D01*
X95040476Y-76809523D01*
X95088095Y-76904761D01*
%TO.C,R1*%
X114102380Y-81579166D02*
X113626190Y-81912500D01*
X114102380Y-82150595D02*
X113102380Y-82150595D01*
X113102380Y-81769642D01*
X113150000Y-81674404D01*
X113197619Y-81626785D01*
X113292857Y-81579166D01*
X113435714Y-81579166D01*
X113530952Y-81626785D01*
X113578571Y-81674404D01*
X113626190Y-81769642D01*
X113626190Y-82150595D01*
X114102380Y-80626785D02*
X114102380Y-81198214D01*
X114102380Y-80912500D02*
X113102380Y-80912500D01*
X113245238Y-81007738D01*
X113340476Y-81102976D01*
X113388095Y-81198214D01*
%TO.C,A1*%
X144635714Y-93706666D02*
X145111904Y-93706666D01*
X144540476Y-93992380D02*
X144873809Y-92992380D01*
X145207142Y-93992380D01*
X146064285Y-93992380D02*
X145492857Y-93992380D01*
X145778571Y-93992380D02*
X145778571Y-92992380D01*
X145683333Y-93135238D01*
X145588095Y-93230476D01*
X145492857Y-93278095D01*
%TO.C,R2*%
X143802380Y-95754166D02*
X143326190Y-96087500D01*
X143802380Y-96325595D02*
X142802380Y-96325595D01*
X142802380Y-95944642D01*
X142850000Y-95849404D01*
X142897619Y-95801785D01*
X142992857Y-95754166D01*
X143135714Y-95754166D01*
X143230952Y-95801785D01*
X143278571Y-95849404D01*
X143326190Y-95944642D01*
X143326190Y-96325595D01*
X142897619Y-95373214D02*
X142850000Y-95325595D01*
X142802380Y-95230357D01*
X142802380Y-94992261D01*
X142850000Y-94897023D01*
X142897619Y-94849404D01*
X142992857Y-94801785D01*
X143088095Y-94801785D01*
X143230952Y-94849404D01*
X143802380Y-95420833D01*
X143802380Y-94801785D01*
%TO.C,U1*%
X97305595Y-80924880D02*
X97305595Y-81734404D01*
X97353214Y-81829642D01*
X97400833Y-81877261D01*
X97496071Y-81924880D01*
X97686547Y-81924880D01*
X97781785Y-81877261D01*
X97829404Y-81829642D01*
X97877023Y-81734404D01*
X97877023Y-80924880D01*
X98877023Y-81924880D02*
X98305595Y-81924880D01*
X98591309Y-81924880D02*
X98591309Y-80924880D01*
X98496071Y-81067738D01*
X98400833Y-81162976D01*
X98305595Y-81210595D01*
%TO.C,J3*%
X153832380Y-83103333D02*
X154546666Y-83103333D01*
X154689523Y-83150952D01*
X154784761Y-83246190D01*
X154832380Y-83389047D01*
X154832380Y-83484285D01*
X153832380Y-82722380D02*
X153832380Y-82103333D01*
X154213333Y-82436666D01*
X154213333Y-82293809D01*
X154260952Y-82198571D01*
X154308571Y-82150952D01*
X154403809Y-82103333D01*
X154641904Y-82103333D01*
X154737142Y-82150952D01*
X154784761Y-82198571D01*
X154832380Y-82293809D01*
X154832380Y-82579523D01*
X154784761Y-82674761D01*
X154737142Y-82722380D01*
%TO.C,C4*%
X112037142Y-81616666D02*
X112084761Y-81664285D01*
X112132380Y-81807142D01*
X112132380Y-81902380D01*
X112084761Y-82045238D01*
X111989523Y-82140476D01*
X111894285Y-82188095D01*
X111703809Y-82235714D01*
X111560952Y-82235714D01*
X111370476Y-82188095D01*
X111275238Y-82140476D01*
X111180000Y-82045238D01*
X111132380Y-81902380D01*
X111132380Y-81807142D01*
X111180000Y-81664285D01*
X111227619Y-81616666D01*
X111465714Y-80759523D02*
X112132380Y-80759523D01*
X111084761Y-80997619D02*
X111799047Y-81235714D01*
X111799047Y-80616666D01*
%TO.C,C3*%
X97827142Y-93966666D02*
X97874761Y-94014285D01*
X97922380Y-94157142D01*
X97922380Y-94252380D01*
X97874761Y-94395238D01*
X97779523Y-94490476D01*
X97684285Y-94538095D01*
X97493809Y-94585714D01*
X97350952Y-94585714D01*
X97160476Y-94538095D01*
X97065238Y-94490476D01*
X96970000Y-94395238D01*
X96922380Y-94252380D01*
X96922380Y-94157142D01*
X96970000Y-94014285D01*
X97017619Y-93966666D01*
X96922380Y-93633333D02*
X96922380Y-93014285D01*
X97303333Y-93347619D01*
X97303333Y-93204761D01*
X97350952Y-93109523D01*
X97398571Y-93061904D01*
X97493809Y-93014285D01*
X97731904Y-93014285D01*
X97827142Y-93061904D01*
X97874761Y-93109523D01*
X97922380Y-93204761D01*
X97922380Y-93490476D01*
X97874761Y-93585714D01*
X97827142Y-93633333D01*
%TO.C,U3*%
X112012380Y-96671904D02*
X112821904Y-96671904D01*
X112917142Y-96624285D01*
X112964761Y-96576666D01*
X113012380Y-96481428D01*
X113012380Y-96290952D01*
X112964761Y-96195714D01*
X112917142Y-96148095D01*
X112821904Y-96100476D01*
X112012380Y-96100476D01*
X112012380Y-95719523D02*
X112012380Y-95100476D01*
X112393333Y-95433809D01*
X112393333Y-95290952D01*
X112440952Y-95195714D01*
X112488571Y-95148095D01*
X112583809Y-95100476D01*
X112821904Y-95100476D01*
X112917142Y-95148095D01*
X112964761Y-95195714D01*
X113012380Y-95290952D01*
X113012380Y-95576666D01*
X112964761Y-95671904D01*
X112917142Y-95719523D01*
%TO.C,C2*%
X101187142Y-97516666D02*
X101234761Y-97564285D01*
X101282380Y-97707142D01*
X101282380Y-97802380D01*
X101234761Y-97945238D01*
X101139523Y-98040476D01*
X101044285Y-98088095D01*
X100853809Y-98135714D01*
X100710952Y-98135714D01*
X100520476Y-98088095D01*
X100425238Y-98040476D01*
X100330000Y-97945238D01*
X100282380Y-97802380D01*
X100282380Y-97707142D01*
X100330000Y-97564285D01*
X100377619Y-97516666D01*
X100377619Y-97135714D02*
X100330000Y-97088095D01*
X100282380Y-96992857D01*
X100282380Y-96754761D01*
X100330000Y-96659523D01*
X100377619Y-96611904D01*
X100472857Y-96564285D01*
X100568095Y-96564285D01*
X100710952Y-96611904D01*
X101282380Y-97183333D01*
X101282380Y-96564285D01*
%TO.C,C1*%
X99187142Y-94016666D02*
X99234761Y-94064285D01*
X99282380Y-94207142D01*
X99282380Y-94302380D01*
X99234761Y-94445238D01*
X99139523Y-94540476D01*
X99044285Y-94588095D01*
X98853809Y-94635714D01*
X98710952Y-94635714D01*
X98520476Y-94588095D01*
X98425238Y-94540476D01*
X98330000Y-94445238D01*
X98282380Y-94302380D01*
X98282380Y-94207142D01*
X98330000Y-94064285D01*
X98377619Y-94016666D01*
X99282380Y-93064285D02*
X99282380Y-93635714D01*
X99282380Y-93350000D02*
X98282380Y-93350000D01*
X98425238Y-93445238D01*
X98520476Y-93540476D01*
X98568095Y-93635714D01*
D11*
%TO.C,J2*%
X139265000Y-94785000D02*
X139330000Y-94785000D01*
X139265000Y-98315000D02*
X139330000Y-98315000D01*
X143130000Y-94785000D02*
X143195000Y-94785000D01*
X139330000Y-99640000D02*
X139330000Y-98315000D01*
X139265000Y-98315000D02*
X139265000Y-94785000D01*
X143130000Y-98315000D02*
X143195000Y-98315000D01*
X143195000Y-98315000D02*
X143195000Y-94785000D01*
%TO.C,U2*%
X102800000Y-99210000D02*
X106560000Y-99210000D01*
X100550000Y-92390000D02*
X106560000Y-92390000D01*
X106560000Y-92390000D02*
X106560000Y-93650000D01*
X106560000Y-99210000D02*
X106560000Y-97950000D01*
%TO.C,J1*%
X96440000Y-73065000D02*
X97440000Y-72065000D01*
X106560000Y-81935000D02*
X97440000Y-81935000D01*
X106560000Y-81935000D02*
X106560000Y-79510000D01*
X97440000Y-72065000D02*
X106560000Y-72065000D01*
X106560000Y-77490000D02*
X106560000Y-76151767D01*
X97440000Y-81935000D02*
X96440000Y-80935000D01*
X96440000Y-80935000D02*
X96440000Y-73065000D01*
X106560000Y-72065000D02*
X106560000Y-74848233D01*
%TO.C,R1*%
X111265000Y-81185436D02*
X111265000Y-81639564D01*
X112735000Y-81185436D02*
X112735000Y-81639564D01*
%TO.C,A1*%
X140270000Y-92400000D02*
X140270000Y-71820000D01*
X150430000Y-92400000D02*
X150430000Y-89730000D01*
X153100000Y-71820000D02*
X137600000Y-71820000D01*
X150430000Y-89730000D02*
X153100000Y-89730000D01*
X137600000Y-92400000D02*
X150430000Y-92400000D01*
X153100000Y-89730000D02*
X153100000Y-71820000D01*
X137600000Y-71820000D02*
X137600000Y-92400000D01*
X153100000Y-92400000D02*
X153100000Y-91000000D01*
X151700000Y-92400000D02*
X153100000Y-92400000D01*
X150430000Y-89730000D02*
X150430000Y-71820000D01*
%TO.C,R2*%
X145735000Y-95814564D02*
X145735000Y-95360436D01*
X144265000Y-95814564D02*
X144265000Y-95360436D01*
%TO.C,U1*%
X96147500Y-90302500D02*
X96147500Y-82452500D01*
X96147500Y-82452500D02*
X108087500Y-82452500D01*
X95817500Y-88182500D02*
X95817500Y-90632500D01*
X108087500Y-90302500D02*
X96147500Y-90302500D01*
X95817500Y-90632500D02*
X98147500Y-90632500D01*
X108087500Y-82452500D02*
X108087500Y-90302500D01*
%TO.C,J3*%
X159960000Y-86330000D02*
X159960000Y-79210000D01*
X156070000Y-83240000D02*
X155470000Y-83240000D01*
X160490000Y-78960000D02*
X161490000Y-78960000D01*
X155470000Y-77580000D02*
X155470000Y-87960000D01*
X159960000Y-79210000D02*
X160490000Y-78960000D01*
X160490000Y-86580000D02*
X160490000Y-78960000D01*
X160490000Y-86580000D02*
X159960000Y-86330000D01*
X161490000Y-87960000D02*
X161490000Y-77580000D01*
X156070000Y-84840000D02*
X156070000Y-83240000D01*
X161490000Y-86580000D02*
X160490000Y-86580000D01*
X155470000Y-84840000D02*
X156070000Y-84840000D01*
X156070000Y-87380000D02*
X156070000Y-85780000D01*
X155470000Y-87380000D02*
X156070000Y-87380000D01*
X156070000Y-78160000D02*
X155470000Y-78160000D01*
X156070000Y-79760000D02*
X156070000Y-78160000D01*
X155470000Y-79760000D02*
X156070000Y-79760000D01*
X161490000Y-79210000D02*
X160490000Y-79210000D01*
X161490000Y-86330000D02*
X160490000Y-86330000D01*
X156070000Y-85780000D02*
X155470000Y-85780000D01*
X156070000Y-80700000D02*
X155470000Y-80700000D01*
X156070000Y-82300000D02*
X156070000Y-80700000D01*
X155470000Y-87960000D02*
X161490000Y-87960000D01*
X156500000Y-88250000D02*
X160500000Y-88250000D01*
X161490000Y-77580000D02*
X155470000Y-77580000D01*
X155470000Y-82300000D02*
X156070000Y-82300000D01*
%TO.C,C4*%
X110735000Y-81188748D02*
X110735000Y-81711252D01*
X109265000Y-81188748D02*
X109265000Y-81711252D01*
%TO.C,C3*%
X98415000Y-94061252D02*
X98415000Y-93538748D01*
X99885000Y-94061252D02*
X99885000Y-93538748D01*
%TO.C,U3*%
X132290000Y-97360000D02*
X131290000Y-97360000D01*
X114050000Y-97360000D02*
X115050000Y-97360000D01*
X114050000Y-71615000D02*
X132290000Y-71615000D01*
X132290000Y-71615000D02*
X132290000Y-78035000D01*
X114050000Y-71615000D02*
X114050000Y-78035000D01*
X114050000Y-78035000D02*
X113670000Y-78035000D01*
X114050000Y-96580000D02*
X114050000Y-97360000D01*
X132290000Y-96580000D02*
X132290000Y-97360000D01*
%TO.C,C2*%
X99885000Y-97088748D02*
X99885000Y-97611252D01*
X98415000Y-97088748D02*
X98415000Y-97611252D01*
%TO.C,C1*%
X97885000Y-93588748D02*
X97885000Y-94111252D01*
X96415000Y-93588748D02*
X96415000Y-94111252D01*
%TD*%
M02*
